<svg width="160" height="148" viewBox="0 0 160 148" fill="none" xmlns="http://www.w3.org/2000/svg">
<path d="M146.806 72.2271C149.133 84.2225 153.849 108.534 142.562 124.797C122.077 154.314 52.4102 152.234 22.9831 115.019C20.4393 111.802 7.6765 95.0188 9.06926 72.0376C11.4845 32.1764 55.0817 -3.15451 90.0219 3.78468C110.47 7.84583 124.062 25.6128 129.657 32.9271C131.963 35.9414 142.523 50.1522 146.806 72.2271Z" fill="#F4F7FA"/>
<path opacity="0.74" d="M57.8096 119.731C64.4903 115.368 73.5917 107.977 79.1778 96.2638C86.504 80.9013 81.3466 71.6003 86.8815 44.3995C90.3812 27.2005 92.9977 15.2328 102.885 10.3045C110.632 6.4426 121.918 7.3664 127.838 13.2199C132.762 18.0871 134.552 26.9325 134.505 33.0167C134.467 37.975 133.205 41.361 135.552 44.384C137.95 47.4733 141.288 46.5393 143.618 48.9235C148.345 53.7587 142.949 66.1215 142.077 68.1193C132.377 90.3449 108.144 102.264 97.5111 107.337C88.719 111.531 75.3269 116.829 57.8096 119.731Z" fill="url(#paint0_linear_2161_28049)"/>
<mask id="mask0_2161_28049" style="mask-type:luminance" maskUnits="userSpaceOnUse" x="57" y="7" width="89" height="113">
<path d="M57.8096 119.731C64.4903 115.368 73.5917 107.977 79.1778 96.2638C86.504 80.9013 81.3466 71.6003 86.8815 44.3995C90.3812 27.2005 92.9977 15.2328 102.885 10.3045C110.632 6.4426 121.918 7.3664 127.838 13.2199C132.762 18.0871 134.552 26.9325 134.505 33.0167C134.467 37.975 133.205 41.361 135.552 44.384C137.95 47.4733 141.288 46.5393 143.618 48.9235C148.345 53.7587 142.949 66.1215 142.077 68.1193C132.377 90.3449 108.144 102.264 97.5111 107.337C88.719 111.531 75.3269 116.829 57.8096 119.731Z" fill="white"/>
</mask>
<g mask="url(#mask0_2161_28049)">
<g opacity="0.5">
<path d="M50.4842 122.812L50.4185 122.473C61.0548 120.433 70.4261 117.426 78.2721 113.536C89.8476 107.795 97.7463 100.275 101.749 91.183C104.883 84.0635 105.585 76.2519 106.556 65.4406C107.331 56.8108 107.098 50.6258 106.892 45.1692C106.624 38.0468 106.412 32.4211 108.601 24.6958C110.822 16.8551 114.86 9.37791 120.601 2.47168L120.868 2.69173C115.158 9.56015 111.143 16.9952 108.935 24.7893C106.761 32.4618 106.972 38.0638 107.239 45.1561C107.445 50.6234 107.679 56.82 106.902 65.4711C105.964 75.9073 105.224 84.1503 102.067 91.3216C98.0312 100.49 90.0776 108.068 78.427 113.845C70.5527 117.749 61.1518 120.767 50.4842 122.812Z" fill="white"/>
<path d="M107.22 59.2848L107.057 59.1772C107.005 59.1428 101.768 55.6564 97.1135 48.8622C94.3797 44.8718 92.3755 40.5363 91.1572 35.9764C89.6349 30.277 89.3426 24.2093 90.2886 17.9424L90.632 17.9938C89.6938 24.2103 89.9827 30.2276 91.4909 35.8785C92.6976 40.3996 94.6832 44.6983 97.3922 48.6557C101.55 54.7292 106.173 58.1366 107.087 58.7778C114.448 44.1729 124.449 35.957 131.556 31.6317C139.293 26.9231 145.373 25.6798 145.434 25.6682L145.502 26.007C145.442 26.0191 139.41 27.2541 131.723 31.9351C124.631 36.2541 114.638 44.4748 107.308 59.1103L107.22 59.2848Z" fill="white"/>
<path d="M104.536 82.5555L104.484 82.4411C104.442 82.35 100.247 73.2205 94.2398 64.8874C88.2547 56.5848 71.7906 51.2058 71.6255 51.1524L71.7327 50.8238C71.8993 50.8776 88.472 56.292 94.5224 64.6857C100.184 72.54 104.241 81.097 104.748 82.1832C114.476 81.005 126.192 70.0613 134.324 61.0661C143.186 51.263 149.815 41.5974 149.881 41.501L150.168 41.6953C150.102 41.7918 143.46 51.4767 134.582 61.2973C129.366 67.0679 124.408 71.7567 119.849 75.2339C114.134 79.5911 109.025 82.0499 104.662 82.5414L104.536 82.5555Z" fill="white"/>
<path d="M84.5531 112.301C82.9864 112.301 82.1037 112.256 82.0764 112.255L81.731 112.236L81.9527 111.971C85.2058 108.09 86.9133 103.739 87.0287 99.0382C87.1213 95.2723 86.1982 91.2717 84.2856 87.1485C81.0212 80.1114 75.9379 75.0945 75.8867 75.0446L76.1303 74.7979C76.1814 74.8483 81.3053 79.903 84.5969 86.9949C86.5338 91.168 87.4691 95.2209 87.3761 99.0411C87.2626 103.715 85.6029 108.047 82.4423 111.923C84.1648 111.982 92.1292 112.134 102.523 110.435C113.328 108.669 129.043 104.484 142.55 94.5758L168.758 75.3518L168.964 75.6301L142.756 94.854C129.19 104.805 113.415 109.006 102.57 110.778C94.5342 112.091 87.9431 112.301 84.5531 112.301Z" fill="white"/>
</g>
</g>
<path d="M82.7603 132.472C93.0025 134.561 106.314 135.568 119.815 131.609C123.261 130.598 144.546 124.356 143.771 113.717C143.498 109.969 140.719 108.84 140.276 103.837C139.752 97.9074 143.319 95.6968 146.571 89.0726C148.51 85.1201 154.188 73.5536 148.718 65.4604C145.449 60.6242 138.348 57.247 132.491 57.6313C123.9 58.1955 119.669 66.7424 112.732 81.3439C106.583 94.2878 107.108 97.8638 102.536 107.097C99.143 113.949 93.3192 123.158 82.7603 132.472Z" fill="url(#paint1_linear_2161_28049)"/>
<mask id="mask1_2161_28049" style="mask-type:luminance" maskUnits="userSpaceOnUse" x="82" y="57" width="70" height="78">
<path d="M82.7603 132.472C93.0025 134.561 106.314 135.568 119.815 131.609C123.261 130.598 144.546 124.356 143.771 113.717C143.498 109.969 140.719 108.84 140.276 103.837C139.752 97.9074 143.319 95.6968 146.571 89.0726C148.51 85.1201 154.188 73.5536 148.718 65.4604C145.449 60.6242 138.348 57.247 132.491 57.6313C123.9 58.1955 119.669 66.7424 112.732 81.3439C106.583 94.2878 107.108 97.8638 102.536 107.097C99.143 113.949 93.3192 123.158 82.7603 132.472Z" fill="white"/>
</mask>
<g mask="url(#mask1_2161_28049)">
<g opacity="0.5">
<path d="M66.8145 134.715C57.3102 134.715 47.7363 132.23 38.2969 127.305L38.4581 126.999C49.171 132.588 60.0538 135.018 70.8076 134.222C85.1336 133.16 98.4888 126.168 110.502 113.44C123.014 100.182 130.936 84.0241 135.378 72.8032C138.457 65.0251 139.481 55.9465 138.419 45.8191L138.765 45.7832C139.832 55.9664 138.801 65.0997 135.701 72.9297C131.248 84.1782 123.305 100.379 110.755 113.676C98.6807 126.47 85.2491 133.498 70.8334 134.566C69.4952 134.666 68.1556 134.715 66.8145 134.715Z" fill="white"/>
<path d="M124.828 94.7082L124.752 94.5536C124.729 94.5075 122.477 89.8919 121.102 83.2469C119.833 77.1104 119.071 67.9344 122.653 59.0705L122.975 59.1994C119.427 67.9804 120.182 77.0803 121.44 83.1679C122.665 89.0922 124.59 93.3908 124.99 94.2463C149.236 82.4758 151.823 64.0671 152.038 58.6954C152.044 58.5422 152.047 58.4782 152.053 58.4414L152.396 58.4962C152.393 58.5175 152.389 58.611 152.385 58.7094C152.168 64.1408 149.549 82.7831 124.984 94.6336L124.828 94.7082Z" fill="white"/>
<path d="M126.85 116.658C121.82 116.658 116.414 115.596 110.775 113.498L110.69 113.466L110.668 113.377C110.63 113.224 106.955 97.8483 111.197 78.7484L115.479 59.4668L115.818 59.5414L111.536 78.823C107.478 97.0926 110.691 111.927 110.984 113.206C118.153 115.86 128.734 118.15 138.598 114.088C144.51 111.654 147.389 108.044 147.417 108.008L147.691 108.22C147.662 108.257 144.727 111.939 138.73 114.408C135.213 115.857 131.343 116.613 127.228 116.657C127.103 116.658 126.976 116.658 126.85 116.658Z" fill="white"/>
</g>
</g>
<path d="M96.6268 11.0273L27.754 5.3333C26.1542 5.27077 24.8545 6.52271 24.8545 8.1304V137.17C24.8545 138.777 26.1542 139.997 27.754 139.896L97.339 135.486C98.7703 135.395 99.9282 134.093 99.9282 132.578V10.8994C99.9282 9.38378 98.0581 11.0831 96.6268 11.0273Z" fill="url(#paint2_linear_2161_28049)"/>
<path d="M80.7734 7.77499C80.7734 6.87833 81.4915 6.15615 82.3659 6.17263L82.9632 6.14258L85.8247 7.24426V8.25143L80.7734 7.77499Z" fill="url(#paint3_linear_2161_28049)"/>
<path d="M99.196 8.05382L29.6109 5.3333C28.0111 5.27077 26.7114 6.52271 26.7114 8.1304V137.17C26.7114 138.777 28.0111 139.997 29.6109 139.896L99.196 135.486C100.627 135.395 101.785 134.093 101.785 132.578V10.8994C101.785 9.38378 100.627 8.10956 99.196 8.05382Z" fill="#D8DEE8"/>
<g opacity="0.3">
<path d="M70.7359 102.886C69.5536 88.1838 78.4187 82.103 75.0393 68.7893C70.8601 52.3227 54.7599 51.5981 49.2678 35.416C47.1623 29.2126 46.3303 19.8384 52.3563 6.22269L29.6104 5.3333C28.0106 5.27077 26.7109 6.52271 26.7109 8.1304V137.17C26.7109 138.777 28.0106 139.997 29.6104 139.896L91.6929 135.961C75.9547 123.616 71.4622 111.922 70.7359 102.886Z" fill="#D8DEE8"/>
</g>
<path d="M99.196 9.67371L29.611 7.04382C28.9553 7.0191 28.4214 7.53432 28.4214 8.193V137.065C28.4214 137.723 28.9553 138.225 29.611 138.185L99.196 133.865C99.7835 133.829 100.261 133.293 100.261 132.67V10.8428C100.261 10.2199 99.7835 9.69552 99.196 9.67371Z" fill="url(#paint4_linear_2161_28049)"/>
<path d="M65.3503 66.6095C52.3225 66.7108 41.5254 55.7671 41.5254 42.212C41.5254 28.6569 52.322 17.9532 65.3503 18.3444C78.1179 18.7273 88.3183 29.6646 88.3183 42.7321C88.3183 55.7996 78.1179 66.5101 65.3503 66.6095Z" fill="#D8DEE8"/>
<path d="M86.7609 42.7153C86.7609 54.9161 77.2644 64.8686 65.3503 64.9457C53.2096 65.0242 43.1973 54.8556 43.1973 42.2311C43.1973 29.6066 53.2096 19.6604 65.3503 20.0089C77.2644 20.3506 86.7609 30.5144 86.7609 42.7153Z" fill="white"/>
<path opacity="0.74" d="M91.4215 75.2278L38.1695 76.0174C36.6813 76.0396 35.4722 77.2775 35.4722 78.7825C35.4722 80.2874 36.6813 81.4846 38.1695 81.4565L91.4215 80.4449C92.7879 80.4187 93.8933 79.2323 93.8933 77.7947C93.8933 76.3566 92.7879 75.2074 91.4215 75.2278Z" fill="url(#paint5_linear_2161_28049)"/>
<path d="M91.4215 85.4987L47.798 86.5039C46.3317 86.5378 45.1401 87.7762 45.1401 89.27C45.1401 90.7638 46.3312 91.9425 47.798 91.9028L91.4215 90.7158C92.788 90.6785 93.8933 89.4828 93.8933 88.0452C93.8933 86.6072 92.788 85.4672 91.4215 85.4987Z" fill="#D8DEE8"/>
<path d="M38.1948 92.164L38.1456 92.1654C36.671 92.2056 35.4731 91.0715 35.4731 89.6325V89.3935C35.4731 87.9545 36.671 86.7602 38.1456 86.7263L38.1948 86.7254C39.666 86.6914 40.8566 87.8261 40.8566 89.2588V89.4968C40.8561 90.9295 39.666 92.1237 38.1948 92.164Z" fill="#B19AF3"/>
<path d="M38.1698 92.6745C36.4049 92.7235 34.9653 91.3106 34.9653 89.5255C34.9653 87.7405 36.4049 86.2554 38.1698 86.2157C39.9298 86.1759 41.3586 87.5888 41.3586 89.3651C41.3586 91.1415 39.9298 92.6261 38.1698 92.6745ZM38.1698 87.2354C36.9626 87.2635 35.9791 88.2799 35.9791 89.5004C35.9791 90.7208 36.9626 91.6872 38.1698 91.6548C39.3745 91.6223 40.3532 90.6064 40.3532 89.3903C40.3532 88.1738 39.3745 87.2073 38.1698 87.2354Z" fill="#D8DEE8"/>
<path d="M91.4215 94.7921L47.798 96.1211C46.3317 96.1657 45.1401 97.4133 45.1401 98.9071C45.1401 100.401 46.3312 101.571 47.798 101.52L91.4215 100.009C92.788 99.9618 93.8933 98.7583 93.8933 97.3202C93.8933 95.8827 92.788 94.7504 91.4215 94.7921Z" fill="#D8DEE8"/>
<path d="M38.1948 101.853L38.1456 101.855C36.671 101.906 35.4731 100.781 35.4731 99.3419V99.1029C35.4731 97.6639 36.671 96.4609 38.1456 96.4158L38.1948 96.4144C39.666 96.3698 40.8566 97.4952 40.8566 98.9284V99.1664C40.8561 100.599 39.666 101.802 38.1948 101.853Z" fill="#B19AF3"/>
<path d="M38.1698 102.364C36.4049 102.426 34.9653 101.023 34.9653 99.2384C34.9653 97.4533 36.4049 95.9576 38.1698 95.9048C39.9298 95.8519 41.3586 97.2541 41.3586 99.0305C41.3586 100.807 39.9298 102.302 38.1698 102.364ZM38.1698 96.9245C36.9626 96.9619 35.9791 97.985 35.9791 99.2054C35.9791 100.426 36.9626 101.385 38.1698 101.344C39.3745 101.303 40.3532 100.28 40.3532 99.063C40.3532 97.8469 39.3745 96.8877 38.1698 96.9245Z" fill="#D8DEE8"/>
<path d="M91.4215 104.085L47.798 105.737C46.3317 105.793 45.1401 107.049 45.1401 108.543C45.1401 110.037 46.3312 111.198 47.798 111.136L91.4215 109.301C92.788 109.244 93.8933 108.032 93.8933 106.594C93.8933 105.157 92.788 104.033 91.4215 104.085Z" fill="#D8DEE8"/>
<path d="M38.1698 112.052C36.4049 112.127 34.9653 110.736 34.9653 108.95C34.9653 107.165 36.4049 105.659 38.1698 105.593C39.9298 105.527 41.3586 106.919 41.3586 108.695C41.3586 110.471 39.9298 111.977 38.1698 112.052ZM38.1698 106.613C36.9626 106.659 35.9791 107.69 35.9791 108.91C35.9791 110.131 36.9626 111.083 38.1698 111.032C39.3745 110.982 40.3532 109.951 40.3532 108.735C40.3532 107.519 39.3745 106.566 38.1698 106.613Z" fill="#D8DEE8"/>
<path d="M91.4215 113.378L47.798 115.355C46.3317 115.422 45.1401 116.687 45.1401 118.181C45.1401 119.675 46.3312 120.827 47.798 120.755L91.4215 118.596C92.788 118.528 93.8933 117.308 93.8933 115.87C93.8933 114.432 92.788 113.316 91.4215 113.378Z" fill="#D8DEE8"/>
<path d="M38.1948 121.228L38.1456 121.231C36.671 121.304 35.4731 120.196 35.4731 118.757V118.518C35.4731 117.079 36.671 115.858 38.1456 115.791L38.1948 115.789C39.666 115.722 40.8566 116.83 40.8566 118.263V118.501C40.8561 119.935 39.666 121.155 38.1948 121.228Z" fill="#B19AF3"/>
<path d="M38.1698 121.74C36.4049 121.828 34.9653 120.447 34.9653 118.662C34.9653 116.877 36.4049 115.36 38.1698 115.281C39.9298 115.202 41.3586 116.582 41.3586 118.359C41.3586 120.136 39.9298 121.652 38.1698 121.74ZM38.1698 116.301C36.9626 116.356 35.9791 117.394 35.9791 118.614C35.9791 119.835 36.9626 120.779 38.1698 120.72C39.3745 120.661 40.3532 119.623 40.3532 118.407C40.3532 117.191 39.3745 116.246 38.1698 116.301Z" fill="#D8DEE8"/>
<mask id="mask2_2161_28049" style="mask-type:luminance" maskUnits="userSpaceOnUse" x="44" y="21" width="42" height="43">
<path d="M85.1995 42.698C85.1995 54.009 76.3895 63.2243 65.3502 63.2815C54.1171 63.3397 44.8643 53.9237 44.8643 42.2497C44.8643 30.5757 54.1166 21.3657 65.3502 21.6735C76.3895 21.976 85.1995 31.3865 85.1995 42.698Z" fill="white"/>
</mask>
<g mask="url(#mask2_2161_28049)">
<path d="M69.9228 28.4094C70.103 27.2021 72.5748 26.3243 74.6691 26.491C80.3994 26.9476 86.461 35.4732 84.9693 41.0741C83.6618 45.9816 77.0673 46.7667 77.2602 50.6922C77.4068 53.6759 81.323 55.1978 80.851 56.1754C80.3555 57.2024 75.3857 56.8646 72.719 53.6628C70.201 50.6393 70.7816 46.3203 70.9789 44.8508C71.8076 38.6856 75.7408 36.7828 74.6691 33.5262C73.687 30.5406 69.6846 30.0055 69.9228 28.4094Z" fill="url(#paint6_linear_2161_28049)"/>
<path d="M43.1973 57.6563C43.1973 57.6563 62.6578 45.9668 86.7609 57.6233C86.7609 57.6233 83.6879 67.632 65.3503 68.2912C46.4704 68.9697 43.1973 57.6563 43.1973 57.6563Z" fill="url(#paint7_linear_2161_28049)"/>
<path d="M61.8982 42.4395L61.1684 48.0215C60.9195 49.9263 59.6427 51.519 57.867 52.1365L51.9346 54.1993C51.9346 54.1993 63.2919 59.8221 77.6525 54.1949L71.1033 51.851C69.2448 51.1327 67.9788 49.3253 67.8979 47.2712L67.7103 42.5049L61.8982 42.4395Z" fill="url(#paint8_linear_2161_28049)"/>
<path d="M62.6644 46.2169C59.6807 45.3944 58.0814 42.8857 57.1334 41.3977C55.5443 38.9045 53.3512 33.7436 55.4157 30.8108C56.332 29.509 57.0813 30.0804 62.5836 27.6192C65.8173 26.1724 66.2304 25.6727 67.4253 25.8181C70.8018 26.2296 72.764 30.8719 73.028 31.4957C73.3749 32.3158 75.3619 37.0162 72.8687 41.4195C70.8695 44.9499 66.5611 47.2914 62.6644 46.2169Z" fill="url(#paint9_linear_2161_28049)"/>
<path d="M70.7562 37.6089C70.7562 42.3225 67.9936 47.3666 64.5685 47.3418C61.1253 47.3166 58.3203 42.1824 58.3203 37.4228C58.3203 32.6628 61.1253 30.1177 64.5685 30.189C67.9936 30.2597 70.7562 32.8949 70.7562 37.6089Z" fill="url(#paint10_linear_2161_28049)"/>
<path d="M58.1131 40.4895C58.7065 40.4638 57.8501 35.5104 60.1489 34.1649C61.6756 33.2716 64.3252 34.13 65.8154 35.7614C68.1649 38.3336 66.8501 41.9809 68.6297 42.7796C69.7594 43.2866 71.2681 42.2523 71.9905 41.4918C74.2479 39.1154 73.9401 34.0306 71.272 31.1293C69.1451 28.8169 66.2597 28.6928 65.5733 28.6851C61.6464 28.6405 58.041 31.5917 57.2148 35.1178C56.5801 37.8281 57.6742 40.5084 58.1131 40.4895Z" fill="url(#paint11_linear_2161_28049)"/>
</g>
<path opacity="0.35" d="M70.7359 102.886C69.5536 88.1834 78.4187 82.1026 75.0394 68.7889C70.8602 52.3223 54.76 51.5977 49.2679 35.4156C47.2491 29.4681 46.401 20.6052 51.649 7.87651L29.611 7.04382C28.9553 7.0191 28.4214 7.53432 28.4214 8.193V137.065C28.4214 137.723 28.9553 138.225 29.611 138.185L89.816 134.447C75.5908 122.654 71.4326 111.547 70.7359 102.886Z" fill="white"/>
<path d="M99.196 8.05382L29.6109 5.3333C28.0111 5.27077 26.7114 6.52271 26.7114 8.1304V137.17C26.7114 138.777 28.0111 139.997 29.6109 139.896L99.196 135.486C100.627 135.395 101.785 134.093 101.785 132.578V10.8994C101.785 9.38378 100.627 8.10956 99.196 8.05382Z" fill="#D8DEE8"/>
<g opacity="0.3">
<path d="M70.7359 102.886C69.5536 88.1838 78.4187 82.103 75.0393 68.7893C70.8601 52.3227 54.7599 51.5981 49.2678 35.416C47.1623 29.2126 46.3303 19.8384 52.3563 6.22269L29.6104 5.3333C28.0106 5.27077 26.7109 6.52271 26.7109 8.1304V137.17C26.7109 138.777 28.0106 139.997 29.6104 139.896L91.6929 135.961C75.9547 123.616 71.4622 111.922 70.7359 102.886Z" fill="#D8DEE8"/>
</g>
<path d="M99.196 9.67371L29.611 7.04382C28.9553 7.0191 28.4214 7.53432 28.4214 8.193V137.065C28.4214 137.723 28.9553 138.225 29.611 138.185L99.196 133.865C99.7835 133.829 100.261 133.293 100.261 132.67V10.8428C100.261 10.2199 99.7835 9.69552 99.196 9.67371Z" fill="url(#paint12_linear_2161_28049)"/>
<path d="M65.3503 66.6095C52.3225 66.7108 41.5254 55.7671 41.5254 42.212C41.5254 28.6569 52.322 17.9532 65.3503 18.3444C78.1179 18.7273 88.3183 29.6646 88.3183 42.7321C88.3183 55.7996 78.1179 66.5101 65.3503 66.6095Z" fill="#D8DEE8"/>
<path d="M86.7609 42.7153C86.7609 54.9161 77.2644 64.8686 65.3503 64.9457C53.2096 65.0242 43.1973 54.8556 43.1973 42.2311C43.1973 29.6066 53.2096 19.6604 65.3503 20.0089C77.2644 20.3506 86.7609 30.5144 86.7609 42.7153Z" fill="white"/>
<path opacity="0.74" d="M91.4215 75.2278L38.1695 76.0174C36.6813 76.0396 35.4722 77.2775 35.4722 78.7825C35.4722 80.2874 36.6813 81.4846 38.1695 81.4565L91.4215 80.4449C92.7879 80.4187 93.8933 79.2323 93.8933 77.7947C93.8933 76.3566 92.7879 75.2074 91.4215 75.2278Z" fill="url(#paint13_linear_2161_28049)"/>
<path d="M91.4215 85.4987L47.798 86.5039C46.3317 86.5378 45.1401 87.7762 45.1401 89.27C45.1401 90.7638 46.3312 91.9425 47.798 91.9028L91.4215 90.7158C92.788 90.6785 93.8933 89.4828 93.8933 88.0452C93.8933 86.6072 92.788 85.4672 91.4215 85.4987Z" fill="#D8DEE8"/>
<path d="M38.1948 92.164L38.1456 92.1654C36.671 92.2056 35.4731 91.0715 35.4731 89.6325V89.3935C35.4731 87.9545 36.671 86.7602 38.1456 86.7263L38.1948 86.7254C39.666 86.6914 40.8566 87.8261 40.8566 89.2588V89.4968C40.8561 90.9295 39.666 92.1237 38.1948 92.164Z" fill="#B19AF3"/>
<path d="M38.1698 92.6745C36.4049 92.7235 34.9653 91.3106 34.9653 89.5255C34.9653 87.7405 36.4049 86.2554 38.1698 86.2157C39.9298 86.1759 41.3586 87.5888 41.3586 89.3651C41.3586 91.1415 39.9298 92.6261 38.1698 92.6745ZM38.1698 87.2354C36.9626 87.2635 35.9791 88.2799 35.9791 89.5004C35.9791 90.7208 36.9626 91.6872 38.1698 91.6548C39.3745 91.6223 40.3532 90.6064 40.3532 89.3903C40.3532 88.1738 39.3745 87.2073 38.1698 87.2354Z" fill="#D8DEE8"/>
<path d="M91.4215 94.7921L47.798 96.1211C46.3317 96.1657 45.1401 97.4133 45.1401 98.9071C45.1401 100.401 46.3312 101.571 47.798 101.52L91.4215 100.009C92.788 99.9618 93.8933 98.7583 93.8933 97.3202C93.8933 95.8827 92.788 94.7504 91.4215 94.7921Z" fill="#D8DEE8"/>
<path d="M38.1948 101.853L38.1456 101.855C36.671 101.906 35.4731 100.781 35.4731 99.3419V99.1029C35.4731 97.6639 36.671 96.4609 38.1456 96.4158L38.1948 96.4144C39.666 96.3698 40.8566 97.4952 40.8566 98.9284V99.1664C40.8561 100.599 39.666 101.802 38.1948 101.853Z" fill="#B19AF3"/>
<path d="M38.1698 102.364C36.4049 102.426 34.9653 101.023 34.9653 99.2384C34.9653 97.4533 36.4049 95.9576 38.1698 95.9048C39.9298 95.8519 41.3586 97.2541 41.3586 99.0305C41.3586 100.807 39.9298 102.302 38.1698 102.364ZM38.1698 96.9245C36.9626 96.9619 35.9791 97.985 35.9791 99.2054C35.9791 100.426 36.9626 101.385 38.1698 101.344C39.3745 101.303 40.3532 100.28 40.3532 99.063C40.3532 97.8469 39.3745 96.8877 38.1698 96.9245Z" fill="#D8DEE8"/>
<path d="M91.4215 104.085L47.798 105.737C46.3317 105.793 45.1401 107.049 45.1401 108.543C45.1401 110.037 46.3312 111.198 47.798 111.136L91.4215 109.301C92.788 109.244 93.8933 108.032 93.8933 106.594C93.8933 105.157 92.788 104.033 91.4215 104.085Z" fill="#D8DEE8"/>
<path d="M38.1698 112.052C36.4049 112.127 34.9653 110.736 34.9653 108.95C34.9653 107.165 36.4049 105.659 38.1698 105.593C39.9298 105.527 41.3586 106.919 41.3586 108.695C41.3586 110.471 39.9298 111.977 38.1698 112.052ZM38.1698 106.613C36.9626 106.659 35.9791 107.69 35.9791 108.91C35.9791 110.131 36.9626 111.083 38.1698 111.032C39.3745 110.982 40.3532 109.951 40.3532 108.735C40.3532 107.519 39.3745 106.566 38.1698 106.613Z" fill="#D8DEE8"/>
<path d="M91.4215 113.378L47.798 115.355C46.3317 115.422 45.1401 116.687 45.1401 118.181C45.1401 119.675 46.3312 120.827 47.798 120.755L91.4215 118.596C92.788 118.528 93.8933 117.308 93.8933 115.87C93.8933 114.432 92.788 113.316 91.4215 113.378Z" fill="#D8DEE8"/>
<path d="M38.1948 121.228L38.1456 121.231C36.671 121.304 35.4731 120.196 35.4731 118.757V118.518C35.4731 117.079 36.671 115.858 38.1456 115.791L38.1948 115.789C39.666 115.722 40.8566 116.83 40.8566 118.263V118.501C40.8561 119.935 39.666 121.155 38.1948 121.228Z" fill="#B19AF3"/>
<path d="M38.1698 121.74C36.4049 121.828 34.9653 120.447 34.9653 118.662C34.9653 116.877 36.4049 115.36 38.1698 115.281C39.9298 115.202 41.3586 116.582 41.3586 118.359C41.3586 120.136 39.9298 121.652 38.1698 121.74ZM38.1698 116.301C36.9626 116.356 35.9791 117.394 35.9791 118.614C35.9791 119.835 36.9626 120.779 38.1698 120.72C39.3745 120.661 40.3532 119.623 40.3532 118.407C40.3532 117.191 39.3745 116.246 38.1698 116.301Z" fill="#D8DEE8"/>
<path opacity="0.35" d="M70.7359 102.886C69.5536 88.1834 78.4187 82.1026 75.0394 68.7889C70.8602 52.3223 54.76 51.5977 49.2679 35.4156C47.2491 29.4681 46.401 20.6052 51.649 7.87651L29.611 7.04382C28.9553 7.0191 28.4214 7.53432 28.4214 8.193V137.065C28.4214 137.723 28.9553 138.225 29.611 138.185L89.816 134.447C75.5908 122.654 71.4326 111.547 70.7359 102.886Z" fill="white"/>
<path d="M96.1692 26.0818L89.7997 21.2088L83.3645 25.7847V10.4081C83.3645 9.20904 82.8048 8.05647 81.8471 7.28388L81.7974 7.24414L93.9419 7.70459C95.173 7.75112 96.1692 8.78398 96.1692 10.0117V26.0818Z" fill="#D8DEE8"/>
<path d="M97.3352 26.0819L90.9653 20.9239L84.53 25.7673V9.49173C84.53 8.22283 83.9703 7.0024 83.0126 6.18475L82.9629 6.14258L95.1075 6.62968C96.3385 6.67912 97.3347 7.77256 97.3347 9.072V26.0819H97.3352Z" fill="url(#paint14_linear_2161_28049)"/>
<path d="M89.2343 72.858C76.491 73.2617 65.9224 62.9685 65.9224 49.9044C65.9224 36.8403 76.4905 26.2854 89.2343 26.3736C101.714 26.4599 111.677 36.7608 111.677 49.3378C111.677 61.9148 101.714 72.4625 89.2343 72.858Z" fill="url(#paint15_linear_2161_28049)"/>
<path d="M90.8403 72.858C78.0965 73.2617 67.5283 62.9685 67.5283 49.9044C67.5283 36.8403 78.0965 26.2854 90.8403 26.3736C103.319 26.4599 113.283 36.7608 113.283 49.3378C113.283 61.9148 103.319 72.4625 90.8403 72.858Z" fill="#D8DEE8"/>
<path d="M111.762 49.3567C111.762 61.1001 102.486 70.9018 90.8402 71.2551C78.965 71.6157 69.165 62.0505 69.165 49.8845C69.165 37.7185 78.965 27.9105 90.8402 27.9769C102.486 28.0418 111.762 37.6133 111.762 49.3567Z" fill="white"/>
<mask id="mask3_2161_28049" style="mask-type:luminance" maskUnits="userSpaceOnUse" x="70" y="29" width="41" height="41">
<path d="M110.237 49.3751C110.237 60.2626 101.631 69.3387 90.84 69.6518C79.8524 69.9707 70.7974 61.1136 70.7974 49.8637C70.7974 38.6138 79.8529 29.5323 90.84 29.5793C101.631 29.6253 110.237 38.4877 110.237 49.3751Z" fill="white"/>
</mask>
<g mask="url(#mask3_2161_28049)">
<path d="M69.165 64.8046C69.165 64.8046 88.2071 53.0918 111.762 63.7582C111.762 63.7582 108.761 73.4639 90.8402 74.5307C72.37 75.63 69.165 64.8046 69.165 64.8046Z" fill="url(#paint16_linear_2161_28049)"/>
<path d="M87.4652 49.6572L86.7515 55.0507C86.5445 58.4794 83.1992 59.8355 83.1992 59.8355C87.1261 64.4705 94.6335 64.1182 97.2588 59.5859C95.4446 58.9388 93.4108 56.1495 93.3314 54.173L93.1477 49.5869L87.4652 49.6572Z" fill="url(#paint17_linear_2161_28049)"/>
<path d="M96.1255 44.8039C96.1255 49.343 93.4248 54.2635 90.0761 54.3183C86.7089 54.373 83.9653 49.4918 83.9653 44.9067C83.9653 40.3216 86.7089 37.8066 90.0761 37.7979C93.4248 37.7892 96.1255 40.2649 96.1255 44.8039Z" fill="url(#paint18_linear_2161_28049)"/>
<path d="M83.7844 46.0654C84.121 46.0087 84.4576 45.9515 84.7942 45.8948C84.6398 45.5206 84.0016 43.8645 84.7942 42.4046C85.5547 41.0039 87.3445 40.3142 88.7109 40.3995C90.2629 40.4964 91.1944 41.2157 91.9733 40.651C92.4108 40.3336 92.5525 39.7602 92.6027 39.3143C92.6373 39.5993 92.7157 40.0209 92.9169 40.4867C93.4961 41.8235 94.4758 42.0968 95.0087 42.9789C95.3678 43.5732 95.6011 44.5697 95.0087 46.3334C95.3044 46.3131 95.6001 46.2922 95.8958 46.2714C96.2076 45.2817 96.5817 43.878 96.8146 42.1627C97.16 39.6162 97.3977 37.8631 96.4171 37.0125C96.2217 36.8429 95.357 36.1711 93.2881 36.8085C92.8034 36.2986 91.7814 35.3646 90.2094 34.8945C89.6652 34.7316 86.9669 33.9251 84.574 35.6748C82.9465 36.8647 81.6702 39.0836 82.0803 40.9152C82.2971 41.8836 82.8905 42.3159 83.4122 44.1877C83.6324 44.9773 83.7337 45.6428 83.7844 46.0654Z" fill="url(#paint19_linear_2161_28049)"/>
<path d="M95.2847 46.4873C95.2847 46.4873 95.6729 44.4952 96.8523 44.6823C98.0293 44.8694 96.3428 48.1425 95.2847 48.5462V46.4873Z" fill="url(#paint20_linear_2161_28049)"/>
<path d="M84.7233 46.5908C84.7233 46.5908 84.3277 44.5876 83.1239 44.7965C81.9178 45.0059 83.6452 48.2848 84.7233 48.6682V46.5908Z" fill="url(#paint21_linear_2161_28049)"/>
</g>
<path d="M111.728 62.9062C111.348 63.435 110.969 63.9638 110.589 64.4921C112.257 65.7252 114.266 67.629 114.233 69.9298C114.184 73.4069 109.521 74.5318 109.223 78.0865C108.921 81.6882 113.238 86.1055 116.055 85.5637C119.645 84.8725 122.837 75.7319 119.471 69.2502C117.328 65.1261 113.24 63.4438 111.728 62.9062Z" fill="url(#paint22_linear_2161_28049)"/>
<path opacity="0.3" d="M111.727 62.9062C111.762 63.3943 111.892 64.1247 112.41 64.719C113.143 65.5584 114.026 65.4096 114.915 65.8517C116.725 66.7517 117.64 69.6419 117.193 71.9693C116.736 74.3467 114.943 75.6955 114.46 76.0479C111.971 77.863 109.82 76.9572 109.222 78.087C108.188 80.0388 112.766 86.1967 116.054 85.5642C119.644 84.873 122.836 75.7324 119.47 69.2507C117.328 65.1261 113.239 63.4438 111.727 62.9062Z" fill="url(#paint23_linear_2161_28049)"/>
<path d="M111.45 64.2949C111.45 64.2949 110.225 63.8747 109.868 63.4627C109.512 63.0503 109.813 61.6122 109.827 60.4664C109.841 59.3206 110.371 60.9812 110.494 61.3563C110.616 61.7319 110.531 62.6024 111.47 63.281L111.45 64.2949Z" fill="url(#paint24_linear_2161_28049)"/>
<path d="M108.599 71.3061C108.155 70.4371 107.973 70.4419 107.864 69.9829C107.615 68.9374 108.256 67.6094 108.8 67.591C109.15 67.5794 109.179 68.1212 109.921 68.966C110.83 70.0008 111.382 69.8651 111.917 70.7637C112.042 70.9741 112.605 71.9197 112.259 72.6259C111.817 73.5269 110.074 73.6694 109.347 72.9744C109.001 72.6443 109.146 72.3768 108.599 71.3061Z" fill="url(#paint25_linear_2161_28049)"/>
<path d="M109.905 72.2436C109.905 72.2436 109.594 73.8959 109.815 75.239C110.016 76.4531 112.276 77.7142 112.709 78.0758C113.143 78.4374 111.56 78.83 110.109 78.6409C108.657 78.4519 104.683 77.1864 104.079 76.4812C103.475 75.776 104.782 76.1235 105.881 75.9897C106.981 75.8565 108.03 74.0229 108.062 73.0875C108.094 72.1525 109.905 72.2436 109.905 72.2436Z" fill="url(#paint26_linear_2161_28049)"/>
<path d="M109.432 73.4772C109.432 73.4772 108.32 73.9628 107.336 73.1796C106.455 72.4782 107.765 70.3243 108.661 70.2972C108.961 70.288 109.397 70.5012 109.655 70.8129C109.807 70.997 109.816 71.1197 110.071 71.4163C110.306 71.6897 110.409 71.7139 110.444 71.8467C110.489 72.0125 110.412 72.2897 109.809 72.7666C110.11 72.7114 110.369 72.7904 110.469 72.9649C110.485 72.9925 110.518 73.0797 110.509 73.1694C110.473 73.4941 110.046 73.6444 109.432 73.4772Z" fill="url(#paint27_linear_2161_28049)"/>
<path d="M77.0529 68.7612C77.0529 68.7612 76.3865 68.8935 76.1614 67.6174C75.985 66.617 75.7556 66.3397 75.59 66.585C75.4243 66.8307 75.5841 67.3886 75.5841 67.3886C75.5841 67.3886 74.5212 66.9776 73.865 66.1841C73.2083 65.3902 73.2604 66.2326 73.3481 66.7129C73.4353 67.1933 74.4851 68.4151 74.8909 68.5702C75.2967 68.7253 76.1614 69.7281 76.1614 69.7281L77.0529 68.7612Z" fill="url(#paint28_linear_2161_28049)"/>
<path d="M98.7421 139.586C99.0884 140.289 98.991 140.591 98.9048 140.723C98.6519 141.113 98.0435 140.745 96.4554 140.932C96.2693 140.954 95.9137 141.002 95.4699 140.898C95.0899 140.809 94.6417 140.608 94.6607 140.507C94.6676 140.47 94.7353 140.455 94.7611 140.45C95.202 140.356 97.9607 139.514 97.9607 139.514L98.7421 139.586Z" fill="url(#paint29_linear_2161_28049)"/>
<path d="M99.3399 138.181L98.8722 139.42C98.8006 139.61 98.6248 139.742 98.4211 139.757C98.2146 139.772 97.99 139.713 97.9603 139.396C97.9199 138.963 98.1522 137.864 98.1522 137.864L99.3399 138.181Z" fill="url(#paint30_linear_2161_28049)"/>
<path d="M117.866 136.11L118.532 137.919L119.5 137.765L119.276 136.091L117.866 136.11Z" fill="url(#paint31_linear_2161_28049)"/>
<path d="M118.833 138.915C119.301 138.362 119.719 138.412 119.804 138.032C119.87 137.733 119.686 137.367 119.409 137.228C119.019 137.033 118.547 137.338 118.441 137.407C117.716 137.876 117.914 138.608 117.231 138.926C117.093 138.99 116.875 139.058 116.645 139.272C116.548 139.363 116.306 139.588 116.363 139.743C116.428 139.922 116.859 139.916 117.269 139.91C117.76 139.903 118.006 139.9 118.242 139.753C118.57 139.549 118.472 139.341 118.833 138.915Z" fill="url(#paint32_linear_2161_28049)"/>
<path d="M116.343 98.3496C116.908 101.964 117.025 105.125 116.953 107.735C116.877 110.544 116.628 111.072 116.794 112.974C117.154 117.113 118.579 117.454 119.668 122.008C120.872 127.036 120.259 131.319 120.009 132.955C119.791 134.386 119.503 135.561 119.275 136.383C118.882 136.874 118.138 136.849 117.356 136.834C116.229 132.28 115.083 128.01 113.956 123.456C111.783 116.692 109.61 109.929 107.437 103.165C110.406 101.56 113.374 99.9549 116.343 98.3496Z" fill="url(#paint33_linear_2161_28049)"/>
<path opacity="0.3" d="M117.356 136.834C116.23 132.28 115.084 128.01 113.957 123.456C111.784 116.692 109.611 109.929 107.437 103.165C110.406 101.56 113.374 99.9549 116.343 98.3496C116.381 98.589 116.411 98.8207 116.444 99.0563C112.719 103.694 112.411 106.885 112.836 108.946C113.351 111.445 114.96 112.437 115.361 116.124C115.648 118.761 114.946 119.362 115.379 121.709C115.937 124.732 117.555 126.193 118.511 127.824C119.436 129.4 120.096 131.75 119.537 135.368C119.446 135.747 119.357 136.088 119.276 136.382C118.883 136.874 118.139 136.849 117.356 136.834Z" fill="url(#paint34_linear_2161_28049)"/>
<path d="M111.172 102.745C111.1 104.479 110.81 107.103 109.678 110.034C108.159 113.964 106.495 114.906 105.806 118.191C105.087 121.621 106.405 122.963 106.472 126.121C106.534 129.079 105.493 133.308 100.341 138.582C99.5059 138.507 98.6709 138.431 97.8359 138.356C98.5058 135.8 99.3953 131.813 99.843 126.824C100.067 124.325 100.097 122.499 100.113 121.816C100.209 117.669 100.802 110.618 103.011 97.8975C105.731 99.5134 108.451 101.129 111.172 102.745Z" fill="url(#paint35_linear_2161_28049)"/>
<path d="M75.5186 69.2501C76.05 68.9481 76.5815 68.6457 77.1125 68.3438C82.9953 74.0969 88.1215 75.6838 91.7279 76.0633C97.1742 76.6367 100.978 74.4333 108.243 75.9339C110.531 76.4064 114.52 77.2876 116.732 80.5306C117.313 81.3831 117.52 82.0287 118.485 88.1449C119.719 95.9629 119.763 97.3272 119.589 99.0105C119.271 102.091 119.078 103.958 117.65 105.61C113.859 109.998 105.802 107.736 104.792 107.438C102.925 106.888 100.025 106.033 98.8724 103.58C98.0179 101.761 98.9352 100.689 99.2212 97.1479C99.3654 95.3638 99.8155 89.7861 97.1537 86.4694C95.2407 84.0857 92.5809 83.9418 89.9776 83.1319C85.8568 81.8509 80.5483 78.4862 75.5186 69.2501Z" fill="url(#paint36_linear_2161_28049)"/>
<g opacity="0.3">
<path d="M114.242 103.522C112.027 101.534 110.719 102.144 109.369 100.565C106.249 96.9158 110.892 90.9101 108.154 88.0301C105.962 85.724 101.775 88.3001 99.382 85.567C97.7949 83.7542 99.2241 82.1495 97.8148 80.2742C95.5847 77.306 90.5822 79.4323 84.0383 77.5702C82.498 77.1316 81.133 76.5451 79.9419 75.9102C83.5356 80.2641 87.0547 82.2231 89.9761 83.1324C92.5795 83.9423 95.2393 84.0863 97.1523 86.4699C99.8141 89.7866 99.364 95.3648 99.2198 97.1484C98.9338 100.69 98.0165 101.761 98.871 103.58C100.024 106.034 102.924 106.889 104.79 107.439C105.714 107.711 112.525 109.622 116.584 106.596C116.033 105.526 115.282 104.455 114.242 103.522Z" fill="url(#paint37_linear_2161_28049)"/>
</g>
<path d="M34.4864 138.488C34.4129 139.122 34.1031 139.633 33.6948 139.793C32.6757 140.192 31.357 140.342 29.8152 140.344C28.25 140.346 26.9132 140.188 25.8863 139.783C25.4908 139.627 25.1873 139.141 25.103 138.531L22.3696 118.711H36.7828L34.4864 138.488Z" fill="url(#paint38_linear_2161_28049)"/>
<path d="M29.5765 119.814C33.5564 119.814 36.7828 119.32 36.7828 118.711C36.7828 118.102 33.5564 117.608 29.5765 117.608C25.5965 117.608 22.3701 118.102 22.3701 118.711C22.3701 119.32 25.5965 119.814 29.5765 119.814Z" fill="url(#paint39_linear_2161_28049)"/>
<path d="M30.1717 118.635C30.6959 118.635 31.2205 118.635 31.7447 118.635C42.5482 110.983 44.5206 105.511 44.0685 101.798C43.6691 98.5165 41.4652 97.3465 38.1843 89.1985C36.2289 84.3411 35.2507 81.9123 35.3272 79.2747C35.4938 73.5099 39.1639 72.7581 41.1549 65.2252C41.9485 62.2226 43.2633 57.2483 40.9308 52.4025C38.4288 47.2043 32.9095 43.6021 31.5245 44.5986C30.6062 45.2592 31.5138 47.9497 32.4135 50.6188C34.7972 57.6874 37.8715 59.3092 38.1848 63.4416C38.3782 65.9944 37.3308 67.0408 34.991 71.9158C30.2535 81.7868 27.6931 87.1222 28.7151 92.3204C30.1132 99.4302 37.0122 100.179 37.4565 106.37C37.818 111.405 33.6046 115.803 30.1717 118.635Z" fill="url(#paint40_linear_2161_28049)"/>
<path d="M22.4391 42.4791C20.9392 42.2814 17.6719 48.6118 17.7323 55.4133C17.7907 62.0205 20.9362 62.986 21.8789 69.7972C23.0763 78.4474 18.3354 79.2912 19.0773 87.7489C19.7559 95.4859 23.8971 96.7635 26.2495 107.373C27.2862 112.049 27.4241 116.049 27.3705 118.746C27.8937 118.746 28.4164 118.746 28.9396 118.746C32.1431 112.131 32.9512 106.635 33.0862 102.802C33.4306 93.0082 29.4993 90.6366 30.8448 81.0588C31.7387 74.6925 33.8461 73.1037 32.9741 67.7902C32.4368 64.5142 31.0777 61.7171 28.8275 57.086C26.6787 52.6633 25.6538 51.7099 24.3448 47.8315C23.126 44.2211 23.1805 42.5765 22.4391 42.4791Z" fill="url(#paint41_linear_2161_28049)"/>
<path d="M25.6889 118.523C25.8833 116.136 25.7746 112.746 24.0077 109.491C21.0337 104.013 16.4969 104.693 12.8009 99.7905C8.9135 94.6349 8.288 86.3958 10.7837 80.5006C13.1829 74.8347 17.4887 73.5774 17.5082 68.4587C17.5238 64.319 14.655 61.3377 15.0428 61.0998C15.4418 60.855 18.6891 63.8828 19.9883 68.3462C20.4964 70.0911 20.7054 72.0516 19.9883 77.3788C18.9059 85.4206 17.687 86.468 17.7323 89.4212C17.8278 95.6353 23.9775 96.3982 27.1459 103.359C28.5835 106.516 29.7405 111.408 28.0423 118.746C27.258 118.672 26.4737 118.597 25.6889 118.523Z" fill="url(#paint42_linear_2161_28049)"/>
<defs>
<linearGradient id="paint0_linear_2161_28049" x1="69.0447" y1="35.6905" x2="88.1426" y2="60.5808" gradientUnits="userSpaceOnUse">
<stop stop-color="#AA80F9"/>
<stop offset="0.9964" stop-color="#6165D7"/>
</linearGradient>
<linearGradient id="paint1_linear_2161_28049" x1="171.801" y1="75.5675" x2="114.158" y2="99.7824" gradientUnits="userSpaceOnUse">
<stop stop-color="#FF9085"/>
<stop offset="1" stop-color="#FB6FBB"/>
</linearGradient>
<linearGradient id="paint2_linear_2161_28049" x1="24.8548" y1="72.6165" x2="99.9282" y2="72.6165" gradientUnits="userSpaceOnUse">
<stop stop-color="#444B8C"/>
<stop offset="0.9964" stop-color="#26264F"/>
</linearGradient>
<linearGradient id="paint3_linear_2161_28049" x1="80.7734" y1="7.19643" x2="85.8246" y2="7.19643" gradientUnits="userSpaceOnUse">
<stop stop-color="#AB316D"/>
<stop offset="1" stop-color="#792D3D"/>
</linearGradient>
<linearGradient id="paint4_linear_2161_28049" x1="99.1172" y1="13.8207" x2="47.2466" y2="99.1315" gradientUnits="userSpaceOnUse">
<stop stop-color="white"/>
<stop offset="0.9964" stop-color="#EBEFF2"/>
</linearGradient>
<linearGradient id="paint5_linear_2161_28049" x1="35.4722" y1="78.3424" x2="93.8933" y2="78.3424" gradientUnits="userSpaceOnUse">
<stop stop-color="#AA80F9"/>
<stop offset="0.9964" stop-color="#6165D7"/>
</linearGradient>
<linearGradient id="paint6_linear_2161_28049" x1="81.9307" y1="24.9449" x2="75.5431" y2="42.0225" gradientUnits="userSpaceOnUse">
<stop stop-color="#AB316D"/>
<stop offset="1" stop-color="#792D3D"/>
</linearGradient>
<linearGradient id="paint7_linear_2161_28049" x1="68.0902" y1="43.3662" x2="63.6398" y2="63.9915" gradientUnits="userSpaceOnUse">
<stop stop-color="#AA80F9"/>
<stop offset="0.9964" stop-color="#6165D7"/>
</linearGradient>
<linearGradient id="paint8_linear_2161_28049" x1="64.7423" y1="44.34" x2="64.827" y2="60.8522" gradientUnits="userSpaceOnUse">
<stop offset="0.003597" stop-color="#F36F56"/>
<stop offset="1" stop-color="#FFC444"/>
</linearGradient>
<linearGradient id="paint9_linear_2161_28049" x1="79.1714" y1="7.76606" x2="49.113" y2="64.9804" gradientUnits="userSpaceOnUse">
<stop stop-color="#AB316D"/>
<stop offset="1" stop-color="#792D3D"/>
</linearGradient>
<linearGradient id="paint10_linear_2161_28049" x1="67.1046" y1="20.3631" x2="63.2995" y2="46.1363" gradientUnits="userSpaceOnUse">
<stop offset="0.003597" stop-color="#F36F56"/>
<stop offset="1" stop-color="#FFC444"/>
</linearGradient>
<linearGradient id="paint11_linear_2161_28049" x1="76.317" y1="16.1584" x2="54.769" y2="57.1738" gradientUnits="userSpaceOnUse">
<stop stop-color="#AB316D"/>
<stop offset="1" stop-color="#792D3D"/>
</linearGradient>
<linearGradient id="paint12_linear_2161_28049" x1="99.1172" y1="13.8207" x2="47.2466" y2="99.1315" gradientUnits="userSpaceOnUse">
<stop stop-color="white"/>
<stop offset="0.9964" stop-color="#EBEFF2"/>
</linearGradient>
<linearGradient id="paint13_linear_2161_28049" x1="35.4722" y1="78.3424" x2="93.8933" y2="78.3424" gradientUnits="userSpaceOnUse">
<stop stop-color="#AA80F9"/>
<stop offset="0.9964" stop-color="#6165D7"/>
</linearGradient>
<linearGradient id="paint14_linear_2161_28049" x1="98.6206" y1="1.17409" x2="79.8852" y2="34.5487" gradientUnits="userSpaceOnUse">
<stop stop-color="#FF9085"/>
<stop offset="1" stop-color="#FB6FBB"/>
</linearGradient>
<linearGradient id="paint15_linear_2161_28049" x1="65.9224" y1="49.6215" x2="111.677" y2="49.6215" gradientUnits="userSpaceOnUse">
<stop stop-color="#444B8C"/>
<stop offset="0.9964" stop-color="#26264F"/>
</linearGradient>
<linearGradient id="paint16_linear_2161_28049" x1="69.1653" y1="66.942" x2="111.762" y2="66.942" gradientUnits="userSpaceOnUse">
<stop stop-color="#AB316D"/>
<stop offset="1" stop-color="#792D3D"/>
</linearGradient>
<linearGradient id="paint17_linear_2161_28049" x1="90.1858" y1="51.4208" x2="90.2662" y2="67.1001" gradientUnits="userSpaceOnUse">
<stop offset="0.003597" stop-color="#F36F56"/>
<stop offset="1" stop-color="#FFC444"/>
</linearGradient>
<linearGradient id="paint18_linear_2161_28049" x1="92.5068" y1="29.7899" x2="88.5679" y2="54.2391" gradientUnits="userSpaceOnUse">
<stop offset="0.003597" stop-color="#F36F56"/>
<stop offset="1" stop-color="#FFC444"/>
</linearGradient>
<linearGradient id="paint19_linear_2161_28049" x1="90.417" y1="34.8559" x2="88.4889" y2="46.8233" gradientUnits="userSpaceOnUse">
<stop stop-color="#444B8C"/>
<stop offset="0.9964" stop-color="#26264F"/>
</linearGradient>
<linearGradient id="paint20_linear_2161_28049" x1="98.7322" y1="30.808" x2="94.8059" y2="55.1793" gradientUnits="userSpaceOnUse">
<stop offset="0.003597" stop-color="#F36F56"/>
<stop offset="1" stop-color="#FFC444"/>
</linearGradient>
<linearGradient id="paint21_linear_2161_28049" x1="86.6696" y1="28.8522" x2="82.723" y2="53.3496" gradientUnits="userSpaceOnUse">
<stop offset="0.003597" stop-color="#F36F56"/>
<stop offset="1" stop-color="#FFC444"/>
</linearGradient>
<linearGradient id="paint22_linear_2161_28049" x1="131.398" y1="103.706" x2="120.655" y2="85.1948" gradientUnits="userSpaceOnUse">
<stop offset="0.003597" stop-color="#F36F56"/>
<stop offset="1" stop-color="#FFC444"/>
</linearGradient>
<linearGradient id="paint23_linear_2161_28049" x1="116.181" y1="61.0496" x2="115.07" y2="76.3664" gradientUnits="userSpaceOnUse">
<stop offset="0.003597" stop-color="#F36F56"/>
<stop offset="1" stop-color="#FFC444"/>
</linearGradient>
<linearGradient id="paint24_linear_2161_28049" x1="114.441" y1="70.8449" x2="110.3" y2="62.4448" gradientUnits="userSpaceOnUse">
<stop offset="0.003597" stop-color="#F36F56"/>
<stop offset="1" stop-color="#FFC444"/>
</linearGradient>
<linearGradient id="paint25_linear_2161_28049" x1="110.132" y1="72.2689" x2="109.945" y2="65.8754" gradientUnits="userSpaceOnUse">
<stop stop-color="#AB316D"/>
<stop offset="1" stop-color="#792D3D"/>
</linearGradient>
<linearGradient id="paint26_linear_2161_28049" x1="108.741" y1="62.7833" x2="108.242" y2="81.5682" gradientUnits="userSpaceOnUse">
<stop offset="0.003597" stop-color="#F36F56"/>
<stop offset="1" stop-color="#FFC444"/>
</linearGradient>
<linearGradient id="paint27_linear_2161_28049" x1="113.662" y1="69.27" x2="107.445" y2="73.1044" gradientUnits="userSpaceOnUse">
<stop offset="0.003597" stop-color="#F36F56"/>
<stop offset="1" stop-color="#FFC444"/>
</linearGradient>
<linearGradient id="paint28_linear_2161_28049" x1="78.5615" y1="73.0614" x2="75.4719" y2="68.0626" gradientUnits="userSpaceOnUse">
<stop offset="0.003597" stop-color="#F36F56"/>
<stop offset="1" stop-color="#FFC444"/>
</linearGradient>
<linearGradient id="paint29_linear_2161_28049" x1="95.5198" y1="145.01" x2="98.7188" y2="133.856" gradientUnits="userSpaceOnUse">
<stop stop-color="#444B8C"/>
<stop offset="0.9964" stop-color="#26264F"/>
</linearGradient>
<linearGradient id="paint30_linear_2161_28049" x1="97.8309" y1="142.738" x2="101.194" y2="125.224" gradientUnits="userSpaceOnUse">
<stop stop-color="#FFC444"/>
<stop offset="0.9964" stop-color="#F36F56"/>
</linearGradient>
<linearGradient id="paint31_linear_2161_28049" x1="118.728" y1="140.191" x2="118.483" y2="122.36" gradientUnits="userSpaceOnUse">
<stop stop-color="#FFC444"/>
<stop offset="0.9964" stop-color="#F36F56"/>
</linearGradient>
<linearGradient id="paint32_linear_2161_28049" x1="117.491" y1="140.881" x2="120.69" y2="129.728" gradientUnits="userSpaceOnUse">
<stop stop-color="#444B8C"/>
<stop offset="0.9964" stop-color="#26264F"/>
</linearGradient>
<linearGradient id="paint33_linear_2161_28049" x1="112.509" y1="103.062" x2="121.988" y2="138.718" gradientUnits="userSpaceOnUse">
<stop stop-color="#444B8C"/>
<stop offset="0.9964" stop-color="#26264F"/>
</linearGradient>
<linearGradient id="paint34_linear_2161_28049" x1="112.509" y1="103.062" x2="121.988" y2="138.718" gradientUnits="userSpaceOnUse">
<stop stop-color="#444B8C"/>
<stop offset="0.9964" stop-color="#26264F"/>
</linearGradient>
<linearGradient id="paint35_linear_2161_28049" x1="82.1511" y1="119.392" x2="118.638" y2="117.218" gradientUnits="userSpaceOnUse">
<stop stop-color="#444B8C"/>
<stop offset="0.9964" stop-color="#26264F"/>
</linearGradient>
<linearGradient id="paint36_linear_2161_28049" x1="117.68" y1="111.668" x2="106.936" y2="93.1568" gradientUnits="userSpaceOnUse">
<stop offset="0.003597" stop-color="#F36F56"/>
<stop offset="1" stop-color="#FFC444"/>
</linearGradient>
<linearGradient id="paint37_linear_2161_28049" x1="91.6587" y1="78.3092" x2="112.462" y2="110.127" gradientUnits="userSpaceOnUse">
<stop offset="0.003597" stop-color="#F36F56"/>
<stop offset="1" stop-color="#FFC444"/>
</linearGradient>
<linearGradient id="paint38_linear_2161_28049" x1="24.2414" y1="126.879" x2="42.6229" y2="133.089" gradientUnits="userSpaceOnUse">
<stop stop-color="#AB316D"/>
<stop offset="1" stop-color="#792D3D"/>
</linearGradient>
<linearGradient id="paint39_linear_2161_28049" x1="32.5371" y1="112.552" x2="25.2014" y2="127.969" gradientUnits="userSpaceOnUse">
<stop stop-color="#FFC444"/>
<stop offset="0.9964" stop-color="#F36F56"/>
</linearGradient>
<linearGradient id="paint40_linear_2161_28049" x1="45.8073" y1="47.2977" x2="32.4839" y2="92.3813" gradientUnits="userSpaceOnUse">
<stop stop-color="#AA80F9"/>
<stop offset="0.9964" stop-color="#6165D7"/>
</linearGradient>
<linearGradient id="paint41_linear_2161_28049" x1="28.3667" y1="43.4907" x2="21.9319" y2="121.101" gradientUnits="userSpaceOnUse">
<stop offset="0.00359712" stop-color="#E38DDD"/>
<stop offset="1" stop-color="#9571F6"/>
</linearGradient>
<linearGradient id="paint42_linear_2161_28049" x1="9.29611" y1="89.9157" x2="28.8866" y2="89.9157" gradientUnits="userSpaceOnUse">
<stop stop-color="#AA80F9"/>
<stop offset="0.9964" stop-color="#6165D7"/>
</linearGradient>
</defs>
</svg>
