<svg width="186" height="48" viewBox="0 0 186 48" fill="none" xmlns="http://www.w3.org/2000/svg">
<rect width="186" height="48" rx="6" fill="url(#paint0_linear_1756_26274)"/>
<path d="M34 25V31C34 31.5304 33.7893 32.0391 33.4142 32.4142C33.0391 32.7893 32.5304 33 32 33H21C20.4696 33 19.9609 32.7893 19.5858 32.4142C19.2107 32.0391 19 31.5304 19 31V20C19 19.4696 19.2107 18.9609 19.5858 18.5858C19.9609 18.2107 20.4696 18 21 18H27" stroke="white" stroke-width="2" stroke-linecap="round" stroke-linejoin="round"/>
<path d="M31 15H37V21" stroke="white" stroke-width="2" stroke-linecap="round" stroke-linejoin="round"/>
<path d="M26 26L37 15" stroke="white" stroke-width="2" stroke-linecap="round" stroke-linejoin="round"/>
<path d="M58.7273 22.125C58.6477 21.8485 58.536 21.6042 58.392 21.392C58.2481 21.1761 58.072 20.9943 57.8636 20.8466C57.6591 20.6951 57.4242 20.5795 57.1591 20.5C56.8977 20.4205 56.608 20.3807 56.2898 20.3807C55.6951 20.3807 55.1723 20.5284 54.7216 20.8239C54.2746 21.1193 53.9261 21.5492 53.6761 22.1136C53.4261 22.6742 53.3011 23.3598 53.3011 24.1705C53.3011 24.9811 53.4242 25.6705 53.6705 26.2386C53.9167 26.8068 54.2652 27.2405 54.7159 27.5398C55.1667 27.8352 55.6989 27.983 56.3125 27.983C56.8693 27.983 57.3447 27.8845 57.7386 27.6875C58.1364 27.4867 58.4394 27.2045 58.6477 26.8409C58.8598 26.4773 58.9659 26.0473 58.9659 25.5511L59.4659 25.625H56.4659V23.7727H61.3352V25.2386C61.3352 26.2614 61.1193 27.1402 60.6875 27.875C60.2557 28.6061 59.661 29.1705 58.9034 29.5682C58.1458 29.9621 57.2784 30.1591 56.3011 30.1591C55.2102 30.1591 54.2519 29.9186 53.4261 29.4375C52.6004 28.9527 51.9564 28.2652 51.4943 27.375C51.036 26.4811 50.8068 25.4205 50.8068 24.1932C50.8068 23.25 50.9432 22.4091 51.2159 21.6705C51.4924 20.928 51.8788 20.2992 52.375 19.7841C52.8712 19.2689 53.4489 18.8769 54.108 18.608C54.767 18.339 55.4811 18.2045 56.25 18.2045C56.9091 18.2045 57.5227 18.3011 58.0909 18.4943C58.6591 18.6837 59.1629 18.9527 59.6023 19.3011C60.0455 19.6496 60.4072 20.0644 60.6875 20.5455C60.9678 21.0227 61.1477 21.5492 61.2273 22.125H58.7273ZM66.7951 30.1705C65.8973 30.1705 65.1246 29.9886 64.4769 29.625C63.8329 29.2576 63.3367 28.7386 62.9882 28.0682C62.6398 27.3939 62.4655 26.5966 62.4655 25.6761C62.4655 24.7784 62.6398 23.9905 62.9882 23.3125C63.3367 22.6345 63.8273 22.1061 64.4598 21.7273C65.0962 21.3485 65.8424 21.1591 66.6985 21.1591C67.2742 21.1591 67.8102 21.2519 68.3064 21.4375C68.8064 21.6193 69.242 21.8939 69.6132 22.2614C69.9882 22.6288 70.2799 23.0909 70.4882 23.6477C70.6966 24.2008 70.8007 24.8485 70.8007 25.5909V26.2557H63.4314V24.7557H68.5223C68.5223 24.4072 68.4466 24.0985 68.2951 23.8295C68.1435 23.5606 67.9333 23.3504 67.6644 23.1989C67.3992 23.0436 67.0905 22.9659 66.7382 22.9659C66.3708 22.9659 66.0451 23.0511 65.761 23.2216C65.4807 23.3883 65.261 23.6136 65.1019 23.8977C64.9428 24.178 64.8613 24.4905 64.8576 24.8352V26.2614C64.8576 26.6932 64.9371 27.0663 65.0962 27.3807C65.2591 27.6951 65.4882 27.9375 65.7837 28.108C66.0791 28.2784 66.4295 28.3636 66.8348 28.3636C67.1038 28.3636 67.35 28.3258 67.5735 28.25C67.797 28.1742 67.9882 28.0606 68.1473 27.9091C68.3064 27.7576 68.4276 27.572 68.511 27.3523L70.7496 27.5C70.636 28.0379 70.403 28.5076 70.0507 28.9091C69.7023 29.3068 69.2515 29.6174 68.6985 29.8409C68.1492 30.0606 67.5148 30.1705 66.7951 30.1705ZM76.7023 21.2727V23.0909H71.4466V21.2727H76.7023ZM72.6398 19.1818H75.0603V27.3182C75.0603 27.5417 75.0944 27.7159 75.1626 27.8409C75.2307 27.9621 75.3254 28.0473 75.4466 28.0966C75.5716 28.1458 75.7156 28.1705 75.8785 28.1705C75.9921 28.1705 76.1057 28.161 76.2194 28.142C76.333 28.1193 76.4201 28.1023 76.4807 28.0909L76.8614 29.892C76.7402 29.9299 76.5698 29.9735 76.3501 30.0227C76.1304 30.0758 75.8633 30.108 75.5489 30.1193C74.9656 30.142 74.4542 30.0644 74.0148 29.8864C73.5792 29.7083 73.2402 29.4318 72.9978 29.0568C72.7554 28.6818 72.636 28.2083 72.6398 27.6364V19.1818ZM81.3876 30V18.3636H89.0922V20.392H83.8478V23.1648H88.5808V25.1932H83.8478V30H81.3876ZM92.8872 18.3636V30H90.427V18.3636H92.8872ZM94.1482 20.392V18.3636H103.705V20.392H100.143V30H97.7107V20.392H94.1482ZM115.121 24.1818C115.121 25.4508 114.88 26.5303 114.399 27.4205C113.922 28.3106 113.27 28.9905 112.445 29.4602C111.623 29.9261 110.698 30.1591 109.672 30.1591C108.638 30.1591 107.71 29.9242 106.888 29.4545C106.066 28.9848 105.416 28.3049 104.939 27.4148C104.462 26.5246 104.223 25.447 104.223 24.1818C104.223 22.9129 104.462 21.8333 104.939 20.9432C105.416 20.053 106.066 19.375 106.888 18.9091C107.71 18.4394 108.638 18.2045 109.672 18.2045C110.698 18.2045 111.623 18.4394 112.445 18.9091C113.27 19.375 113.922 20.053 114.399 20.9432C114.88 21.8333 115.121 22.9129 115.121 24.1818ZM112.626 24.1818C112.626 23.3598 112.503 22.6667 112.257 22.1023C112.015 21.5379 111.672 21.1098 111.229 20.8182C110.786 20.5265 110.267 20.3807 109.672 20.3807C109.077 20.3807 108.558 20.5265 108.115 20.8182C107.672 21.1098 107.327 21.5379 107.081 22.1023C106.839 22.6667 106.717 23.3598 106.717 24.1818C106.717 25.0038 106.839 25.697 107.081 26.2614C107.327 26.8258 107.672 27.2538 108.115 27.5455C108.558 27.8371 109.077 27.983 109.672 27.983C110.267 27.983 110.786 27.8371 111.229 27.5455C111.672 27.2538 112.015 26.8258 112.257 26.2614C112.503 25.697 112.626 25.0038 112.626 24.1818ZM122.936 21.7102C122.89 21.2519 122.695 20.8958 122.351 20.642C122.006 20.3883 121.538 20.2614 120.947 20.2614C120.546 20.2614 120.207 20.3182 119.93 20.4318C119.654 20.5417 119.441 20.6951 119.294 20.892C119.15 21.089 119.078 21.3125 119.078 21.5625C119.07 21.7708 119.114 21.9527 119.208 22.108C119.307 22.2633 119.441 22.3977 119.612 22.5114C119.782 22.6212 119.979 22.7178 120.203 22.8011C120.426 22.8807 120.665 22.9489 120.919 23.0057L121.964 23.2557C122.472 23.3693 122.938 23.5208 123.362 23.7102C123.786 23.8996 124.154 24.1326 124.464 24.4091C124.775 24.6856 125.015 25.0114 125.186 25.3864C125.36 25.7614 125.449 26.1913 125.453 26.6761C125.449 27.3883 125.267 28.0057 124.907 28.5284C124.551 29.0473 124.036 29.4508 123.362 29.7386C122.691 30.0227 121.883 30.1648 120.936 30.1648C119.996 30.1648 119.178 30.0208 118.481 29.733C117.788 29.4451 117.246 29.0189 116.856 28.4545C116.47 27.8864 116.267 27.1837 116.248 26.3466H118.629C118.655 26.7367 118.767 27.0625 118.964 27.3239C119.165 27.5814 119.432 27.7765 119.765 27.9091C120.102 28.0379 120.483 28.1023 120.907 28.1023C121.324 28.1023 121.686 28.0417 121.993 27.9205C122.303 27.7992 122.544 27.6307 122.714 27.4148C122.885 27.1989 122.97 26.9508 122.97 26.6705C122.97 26.4091 122.892 26.1894 122.737 26.0114C122.585 25.8333 122.362 25.6818 122.066 25.5568C121.775 25.4318 121.417 25.3182 120.993 25.2159L119.726 24.8977C118.744 24.6591 117.97 24.286 117.402 23.7784C116.833 23.2708 116.551 22.5871 116.555 21.7273C116.551 21.0227 116.739 20.4072 117.118 19.8807C117.5 19.3542 118.025 18.9432 118.691 18.6477C119.358 18.3523 120.116 18.2045 120.964 18.2045C121.828 18.2045 122.582 18.3523 123.226 18.6477C123.873 18.9432 124.377 19.3542 124.737 19.8807C125.097 20.4072 125.282 21.017 125.294 21.7102H122.936ZM130.171 30V18.3636H134.762C135.644 18.3636 136.396 18.5322 137.017 18.8693C137.639 19.2027 138.112 19.6667 138.438 20.2614C138.767 20.8523 138.932 21.5341 138.932 22.3068C138.932 23.0795 138.765 23.7614 138.432 24.3523C138.099 24.9432 137.616 25.4034 136.983 25.733C136.354 26.0625 135.593 26.2273 134.699 26.2273H131.773V24.2557H134.301C134.775 24.2557 135.165 24.1742 135.472 24.0114C135.782 23.8447 136.014 23.6155 136.165 23.3239C136.32 23.0284 136.398 22.6894 136.398 22.3068C136.398 21.9205 136.32 21.5833 136.165 21.2955C136.014 21.0038 135.782 20.7784 135.472 20.6193C135.161 20.4564 134.767 20.375 134.29 20.375H132.631V30H130.171ZM140.21 30V18.3636H144.801C145.68 18.3636 146.43 18.5208 147.051 18.8352C147.676 19.1458 148.151 19.5871 148.477 20.1591C148.807 20.7273 148.971 21.3958 148.971 22.1648C148.971 22.9375 148.805 23.6023 148.471 24.1591C148.138 24.7121 147.655 25.1364 147.023 25.4318C146.394 25.7273 145.632 25.875 144.739 25.875H141.665V23.8977H144.341C144.81 23.8977 145.201 23.8333 145.511 23.7045C145.822 23.5758 146.053 23.3826 146.204 23.125C146.36 22.8674 146.437 22.5473 146.437 22.1648C146.437 21.7784 146.36 21.4527 146.204 21.1875C146.053 20.9223 145.82 20.7216 145.506 20.5852C145.195 20.4451 144.803 20.375 144.329 20.375H142.67V30H140.21ZM146.494 24.7045L149.386 30H146.67L143.841 24.7045H146.494ZM161.083 24.1818C161.083 25.4508 160.843 26.5303 160.362 27.4205C159.884 28.3106 159.233 28.9905 158.407 29.4602C157.585 29.9261 156.661 30.1591 155.634 30.1591C154.6 30.1591 153.672 29.9242 152.85 29.4545C152.028 28.9848 151.379 28.3049 150.901 27.4148C150.424 26.5246 150.186 25.447 150.186 24.1818C150.186 22.9129 150.424 21.8333 150.901 20.9432C151.379 20.053 152.028 19.375 152.85 18.9091C153.672 18.4394 154.6 18.2045 155.634 18.2045C156.661 18.2045 157.585 18.4394 158.407 18.9091C159.233 19.375 159.884 20.053 160.362 20.9432C160.843 21.8333 161.083 22.9129 161.083 24.1818ZM158.589 24.1818C158.589 23.3598 158.466 22.6667 158.22 22.1023C157.977 21.5379 157.634 21.1098 157.191 20.8182C156.748 20.5265 156.229 20.3807 155.634 20.3807C155.04 20.3807 154.521 20.5265 154.078 20.8182C153.634 21.1098 153.29 21.5379 153.044 22.1023C152.801 22.6667 152.68 23.3598 152.68 24.1818C152.68 25.0038 152.801 25.697 153.044 26.2614C153.29 26.8258 153.634 27.2538 154.078 27.5455C154.521 27.8371 155.04 27.983 155.634 27.983C156.229 27.983 156.748 27.8371 157.191 27.5455C157.634 27.2538 157.977 26.8258 158.22 26.2614C158.466 25.697 158.589 25.0038 158.589 24.1818Z" fill="white"/>
<defs>
<linearGradient id="paint0_linear_1756_26274" x1="-2.65217e-06" y1="1.36083" x2="36.3027" y2="100.391" gradientUnits="userSpaceOnUse">
<stop stop-color="#6707E0"/>
<stop offset="1" stop-color="#FF61DC"/>
</linearGradient>
</defs>
</svg>
