<svg width="24" height="24" viewBox="0 0 24 24" fill="none" xmlns="http://www.w3.org/2000/svg">
<rect x="2" y="2" width="20" height="20" rx="2" fill="#FF6301"/>
<path d="M17.9345 8.39784L10.4887 15.8771H10.4831C10.3884 15.9718 10.1322 16.1834 9.83709 16.1834C9.62546 16.1834 9.38599 16.0664 9.1855 15.8659L6.06683 12.7473C5.97772 12.6582 5.97772 12.5189 6.06683 12.4298L7.05812 11.4385C7.10267 11.394 7.15836 11.3717 7.21406 11.3717C7.26975 11.3717 7.32544 11.394 7.36999 11.4385L9.70071 13.7693C9.77902 13.8476 9.90605 13.8473 9.98407 13.7687L16.6369 7.06683C16.6815 7.02228 16.7372 7 16.7928 7C16.8541 7 16.9098 7.02228 16.9488 7.06683L17.9234 8.07483C18.0236 8.1695 18.0236 8.30873 17.9345 8.39784Z" fill="white"/>
</svg>
