<svg width="20" height="20" viewBox="0 0 20 20" fill="none" xmlns="http://www.w3.org/2000/svg">
<g clip-path="url(#clip0_2008_26798)">
<path d="M4.93865 11.8967L4.30577 14.2594L1.9926 14.3083C1.3013 13.0261 0.90918 11.5591 0.90918 10.0002C0.90918 8.49267 1.2758 7.07108 1.92566 5.81934H1.92615L3.98553 6.19689L4.88766 8.24391C4.69885 8.79437 4.59593 9.38528 4.59593 10.0002C4.59601 10.6675 4.71689 11.3069 4.93865 11.8967Z" fill="#FBBB00"/>
<path d="M18.9324 8.30176C19.0368 8.85169 19.0912 9.41962 19.0912 10.0001C19.0912 10.6509 19.0228 11.2858 18.8925 11.8982C18.4499 13.9821 17.2936 15.8018 15.6917 17.0895L15.6912 17.089L13.0973 16.9566L12.7302 14.6649C13.7931 14.0415 14.6238 13.066 15.0613 11.8982H10.2002V8.30176H15.1323H18.9324Z" fill="#518EF8"/>
<path d="M15.691 17.0888L15.6915 17.0893C14.1335 18.3415 12.1545 19.0908 10.0002 19.0908C6.53813 19.0908 3.52815 17.1557 1.99268 14.3081L4.93873 11.8965C5.70645 13.9454 7.68298 15.404 10.0002 15.404C10.9962 15.404 11.9293 15.1347 12.7299 14.6647L15.691 17.0888Z" fill="#28B446"/>
<path d="M15.8029 3.00208L12.8578 5.41316C12.0292 4.89519 11.0496 4.59597 10.0002 4.59597C7.63058 4.59597 5.61708 6.12143 4.88782 8.24384L1.92628 5.81927H1.92578C3.43878 2.90218 6.48672 0.90918 10.0002 0.90918C12.206 0.90918 14.2285 1.6949 15.8029 3.00208Z" fill="#F14336"/>
</g>
<defs>
<clipPath id="clip0_2008_26798">
<rect width="20" height="20" fill="white"/>
</clipPath>
</defs>
</svg>
