<svg width="24" height="24" viewBox="0 0 24 24" fill="none" xmlns="http://www.w3.org/2000/svg">
<g clip-path="url(#clip0_1750_23948)">
<path d="M4.25602 16.5933C3.13935 14.7093 2.74875 12.4825 3.15755 10.331C3.56636 8.1794 4.74645 6.25104 6.47628 4.90789C8.20611 3.56474 10.3667 2.89919 12.5525 3.03617C14.7383 3.17315 16.7989 4.10325 18.3475 5.65186C19.8961 7.20047 20.8262 9.26108 20.9632 11.4469C21.1002 13.6326 20.4346 15.7932 19.0915 17.5231C17.7483 19.2529 15.8199 20.433 13.6684 20.8418C11.5168 21.2506 9.29001 20.86 7.40602 19.7433L4.29352 20.6246C4.16599 20.6619 4.03079 20.6642 3.90207 20.6313C3.77335 20.5983 3.65586 20.5314 3.56191 20.4374C3.46796 20.3435 3.40101 20.226 3.36809 20.0973C3.33516 19.9686 3.33747 19.8334 3.37477 19.7058L4.25602 16.5933Z" stroke="#1C2C40" stroke-width="2" stroke-linecap="round" stroke-linejoin="round"/>
</g>
<defs>
<clipPath id="clip0_1750_23948">
<rect width="24" height="24" fill="white"/>
</clipPath>
</defs>
</svg>
