<svg width="280" height="150" viewBox="0 0 280 150" fill="none" xmlns="http://www.w3.org/2000/svg">
<g clip-path="url(#clip0_2034_27814)">
<path d="M10.9677 149.691C10.9677 149.691 -13.7679 112.189 13.3033 71.5881C37.3226 35.5646 75.2201 64.209 96.6937 27.5535C125.979 -22.4343 272.122 -2.91256 253.614 73.9954C244.657 111.213 294.264 112.566 275.811 149.77L10.9677 149.691Z" fill="#EBF3FA"/>
<path d="M195.595 74.7528C195.595 74.7528 191.127 68.8479 195.872 65.5703C195.872 65.5703 199.3 63.7825 201.984 64.1124C201.984 64.1124 197.767 70.2537 198.963 70.9658C200.157 71.6769 203.165 63.7844 203.165 63.7844C203.165 63.7844 210.728 63.5258 213.073 64.8351C213.073 64.8351 206.319 69.6767 207.653 70.0733C208.987 70.4698 216.25 65.7566 216.25 65.7566C216.25 65.7566 223.172 67.3785 222.532 71.6093C221.892 75.8402 219.4 77.0038 218.347 76.8253C217.295 76.6458 211.245 73.9018 211.056 74.7595C210.867 75.6163 214.421 78.6768 217.024 78.9721C217.024 78.9721 211.752 84.0877 208.572 82.3182C205.393 80.5496 205.268 78.0516 203.283 76.9941C201.297 75.9367 199.553 75.8305 200.337 76.832C201.121 77.8335 204.762 78.9856 205.801 81.1188C206.841 83.2521 207.802 84.7071 204.442 83.9873C201.082 83.2676 195.725 80.4512 195.66 77.6029C195.595 74.7528 195.595 74.7528 195.595 74.7528Z" fill="#82B378"/>
<path d="M219.087 71.509C219.087 71.509 200.131 69.5967 195.595 74.7519C195.595 74.7519 194.494 77.465 191.479 79.8096L190.959 80.9915C190.959 80.9915 194.468 77.7361 195.66 77.6001C195.66 77.6001 194.238 70.7748 219.087 71.509Z" fill="#82B378"/>
<path d="M191.48 79.8105C191.48 79.8105 187.213 82.5632 186.592 87.9181L187.328 88.03C187.328 88.03 188.978 82.5565 191.469 80.5303C193.961 78.5051 191.48 79.8105 191.48 79.8105Z" fill="#82B378"/>
<path d="M173.673 60.6376C173.673 60.6376 163.767 55.1071 168.389 47.6025C168.389 47.6025 172.088 42.9944 176.051 41.8086C176.051 41.8086 173.937 53.0008 176.051 53.2642C178.164 53.5276 177.504 40.6238 177.504 40.6238C177.504 40.6238 187.939 35.6201 192.034 36.0156C192.034 36.0156 185.562 46.9445 187.676 46.6811C189.789 46.4177 197.054 35.3576 197.054 35.3576C197.054 35.3576 207.753 33.3826 209.471 39.7023C211.188 46.0221 208.414 49.1829 206.829 49.5775C205.244 49.9722 195.073 49.8409 195.337 51.158C195.601 52.475 202.469 54.5812 206.301 53.3964C206.301 53.3964 202.074 63.7984 196.525 63.2716C190.977 62.7448 189.26 59.3215 185.826 59.0581C182.392 58.7947 179.882 59.7162 181.599 60.6385C183.316 61.56 189.128 60.9405 191.902 63.2909C194.676 65.6413 196.921 67.0905 191.77 68.1431C186.619 69.1967 177.372 68.5378 175.522 64.5877C173.673 60.6376 173.673 60.6376 173.673 60.6376Z" fill="#A8D29F"/>
<path d="M204.583 41.6777C204.583 41.6777 176.844 50.6315 173.673 60.638C173.673 60.638 173.806 65.1148 171.032 70.2498V72.2248C171.032 72.2248 173.938 65.5095 175.523 64.588C175.523 64.588 169.315 55.8977 204.583 41.6777Z" fill="#82B378"/>
<path d="M171.032 70.2496C171.032 70.2496 166.754 76.7247 169.193 84.6075L170.293 84.3132C170.293 84.3132 169.225 75.6315 171.464 71.2646C173.702 66.8977 171.032 70.2496 171.032 70.2496Z" fill="#82B378"/>
<path d="M121.431 63.4707C121.431 63.4707 132.96 58.6069 128.806 49.8239C128.806 49.8239 125.313 44.3272 121.115 42.5499C121.115 42.5499 122.07 55.0698 119.722 55.1036C117.374 55.1364 119.667 41.0757 119.667 41.0757C119.667 41.0757 108.839 34.3323 104.304 34.2696C104.304 34.2696 110.068 47.0278 107.784 46.4836C105.5 45.9395 98.8832 32.941 98.8832 32.941C98.8832 32.941 87.3986 29.484 84.7484 36.2022C82.0982 42.9204 84.7542 46.7191 86.4433 47.3433C88.1323 47.9676 99.2945 49.0521 98.8445 50.4627C98.3944 51.8733 90.6112 53.3524 86.5575 51.5915C86.5575 51.5915 89.9249 63.5016 96.0684 63.5942C102.212 63.6869 104.51 60.143 108.306 60.2694C112.101 60.3958 114.74 61.7089 112.746 62.5117C110.752 63.3144 104.458 61.9328 101.133 64.1741C97.8068 66.4154 95.1702 67.7315 100.687 69.5078C106.205 71.2841 116.417 71.6797 118.924 67.5742C121.431 63.4707 121.431 63.4707 121.431 63.4707Z" fill="#A8D29F"/>
<path d="M89.863 38.959C89.863 38.959 119.173 52.1224 121.43 63.4709C121.43 63.4709 120.741 68.3608 123.157 74.3235L122.917 76.4877C122.917 76.4877 120.548 68.7776 118.924 67.5764C118.924 67.5764 126.784 58.803 89.863 38.959Z" fill="#82B378"/>
<path d="M123.157 74.323C123.157 74.323 127.058 81.9357 123.427 90.2797L122.257 89.8243C122.257 89.8243 124.483 80.4392 122.562 75.3834C120.639 70.3276 123.157 74.323 123.157 74.323Z" fill="#82B378"/>
<path d="M97.7835 91.6969C95.746 88.7676 95.5185 86.039 95.5185 86.039C95.5185 86.039 101.156 82.004 97.8329 77.7616C97.8329 77.7616 95.2698 75.2144 92.7822 74.7658C92.7822 74.7658 94.8342 81.4193 93.5691 81.7233C92.3031 82.0272 91.8191 74.1454 91.8191 74.1454C91.8191 74.1454 85.1375 71.8181 82.6779 72.3372C82.6779 72.3372 87.3598 78.5335 86.058 78.518C84.7561 78.5026 79.5844 72.2803 79.5844 72.2803C79.5844 72.2803 72.9502 71.8104 72.3414 75.7663C71.7325 79.7222 73.6345 81.4521 74.6238 81.5843C75.614 81.7165 81.7826 80.9427 81.7119 81.7599C81.6422 82.5772 77.6147 84.3255 75.2065 83.8672C75.2065 83.8672 78.4877 89.8965 81.8213 89.1979C85.1549 88.4994 85.9631 86.3034 88.0306 85.9088C90.0981 85.5142 91.6865 85.903 90.706 86.5803C89.7264 87.2576 86.1538 87.2769 84.6303 88.894C83.1067 90.5111 81.8426 91.5435 85.0436 91.832C88.2445 92.1205 93.8159 91.09 94.6677 88.564C94.7045 88.454 94.7403 88.3489 94.7742 88.2485C94.7287 88.454 94.6677 88.564 94.6677 88.564C95.2833 88.8352 96.3297 90.3384 97.0692 91.4991C97.1785 91.6988 97.347 91.9728 97.5919 92.3424C97.6935 92.5103 97.7748 92.6482 97.8319 92.7447C99.2461 95.372 99.1986 100.188 99.1986 100.188L99.8878 100.292C100.826 95.3373 97.7835 91.6969 97.7835 91.6969Z" fill="#82B378"/>
<path d="M60.1049 24.2558C60.0497 23.9519 59.3335 20.6984 54.2847 21.2542C54.2847 21.2542 56.7975 21.1905 57.3821 22.2113C57.3821 22.2113 55.5053 21.1172 54.1976 21.7453C52.8899 22.3734 52.434 24.8829 52.5405 25.6703C52.647 26.4585 53.7775 28.8851 54.6787 28.9749C55.0204 29.0086 55.3959 28.9324 55.7318 28.8234C55.5527 29.217 55.3843 29.6474 55.2323 30.1221C53.825 34.5141 56.4761 38.2239 58.109 37.535C59.1563 37.0931 59.7332 38.9003 59.7332 38.9003L69.0651 28.8369C69.0661 28.8369 64.0154 21.3873 60.1049 24.2558Z" fill="#2C3A64"/>
<path d="M72.2621 145.462L69.9923 146.304C69.9923 146.304 60.1339 132.675 58.9201 120.684C58.7033 118.543 58.7759 116.468 59.2444 114.553C59.2444 114.553 59.1476 114.004 58.9791 113.034C58.9017 112.582 58.8049 112.037 58.6955 111.412C58.3752 109.582 57.9338 107.077 57.4295 104.225C56.2699 97.6623 54.7667 89.273 53.5994 83.1057L54.2111 82.9098L60.8279 80.7823L62.1956 76.4531L67.1224 75.1602C67.1224 75.1602 68.2229 77.3069 69.2073 87.4456C69.3893 88.7751 69.5538 90.2417 69.6777 91.8327C70.061 96.6869 70.0891 102.708 69.2092 109.593C68.9827 111.354 68.6982 113.174 68.3439 115.043C68.0845 116.413 68.0458 118.281 68.1552 120.426C68.6527 130.227 72.2621 145.462 72.2621 145.462Z" fill="#2B478B"/>
<path d="M69.6797 91.8308L58.9801 113.034C58.9027 112.582 58.8059 112.037 58.6965 111.412C58.3761 109.582 57.9348 107.077 57.4305 104.225C56.2709 97.6623 54.7677 89.273 53.6003 83.1057L54.2121 82.9098L60.8289 80.7823L62.1966 76.4531L67.1233 75.1602C67.1233 75.1602 68.2239 77.3069 69.2083 87.4456C69.3902 88.7742 69.5548 90.2407 69.6797 91.8308Z" fill="#233862"/>
<path d="M64.9726 77.8804L64.7248 75.7635C60.5753 76.8625 49.4876 72.6934 49.4876 72.6934C49.4876 72.6934 45.4678 76.216 45.9953 84.6594C46.2528 88.7803 46.7232 106.292 47.2149 111.474C47.393 113.353 47.5478 114.689 47.6117 115.223C47.6127 115.226 47.6127 115.227 47.6127 115.228C47.6321 115.391 47.5749 115.544 47.4917 115.687C46.7677 116.911 46.1685 118.186 45.6778 119.489C40.8536 132.304 46.4212 148.084 46.4212 148.084L47.8653 147.504C47.8653 147.504 51.0334 129.943 53.6071 122.184C54.0437 120.868 54.4628 119.834 54.847 119.216C55.966 117.416 57.0046 114.474 57.9473 110.975C59.7293 104.359 61.1628 95.7532 62.1182 89.1102C62.2508 89.116 64.9726 77.8804 64.9726 77.8804Z" fill="#2B478B"/>
<path d="M71.663 60.9099C71.7443 60.9928 71.8227 61.0758 71.9186 61.153C75.4651 64.447 80.2418 67.3599 82.7972 68.0015C84.4785 68.4299 88.1847 67.8558 91.2617 67.2248C93.3128 66.8215 95.0977 66.3757 95.8343 66.2011C96.0695 66.1461 96.2001 66.1056 96.2001 66.1056L95.8788 64.0369C95.8788 64.0369 94.0339 63.8912 91.7418 63.6336C88.5496 63.2593 84.5027 62.6852 83.466 62.0744C81.0617 60.6503 76.8424 54.6769 73.4576 50.9218C73.2804 50.7172 73.1043 50.5204 72.93 50.3274C72.8023 50.1865 72.6755 50.0476 72.5487 49.9125C72.5225 49.8855 72.4906 49.8411 72.449 49.818C72.2931 49.6694 72.1615 49.5305 72.0337 49.4089C72.0289 49.3934 72.0066 49.3828 71.9853 49.3703C71.3833 48.7682 70.3292 48.0369 70.3292 48.0369C69.7378 47.7011 69.2509 47.6355 68.9083 47.922C68.9083 47.922 68.4659 48.3533 68.0323 49.1667C67.9403 49.3365 67.8494 49.5237 67.7632 49.7282C67.6916 49.8402 67.6558 49.9588 67.6209 50.0775C67.3334 50.8291 67.1244 51.7728 67.1621 52.8736C67.1883 53.7073 67.348 54.6268 67.7197 55.6408C68.3091 57.3052 69.8036 59.1548 71.663 60.9099Z" fill="#FFB27D"/>
<path d="M68.5752 52.1829C67.3731 52.9653 65.8747 53.5964 64.0066 53.9717C57.0026 55.3784 54.5015 49.4417 53.6139 45.3884C54.578 44.8741 55.4743 44.7796 55.9921 44.7323C56.4964 44.687 57.0268 44.6628 57.4653 44.6532C58.2638 44.0781 59.497 41.6699 59.8619 37.8857L60.1871 37.9822L65.6289 39.6321C65.6289 39.6321 65.3288 41.3631 65.1584 43.0023C65.0268 44.2846 64.9774 45.5129 65.2126 45.8206C65.6376 45.9249 65.8931 45.9924 65.8931 45.9924C65.8931 45.9924 65.8931 45.9943 65.896 45.9972C65.9657 46.1217 67.4834 48.774 68.5752 52.1829Z" fill="#FFB27D"/>
<path d="M71.0135 56.545C70.9816 56.6936 70.9419 56.8393 70.8983 56.9889C69.669 61.0866 68.674 77.4668 68.674 77.4668C69.3254 79.5142 57.384 79.9339 50.7992 78.9874C48.4045 78.6439 46.7184 78.12 46.6022 77.4282C45.4242 74.7807 48.3077 69.8358 49.9726 67.3224C50.1816 67.0069 50.3617 66.675 50.5098 66.3315C50.8863 65.467 51.0673 64.5253 51.0295 63.5759C50.9792 62.2772 50.8679 61.0161 50.7324 59.8342C50.4778 57.6064 50.1361 55.6612 49.958 54.2844C49.958 54.2844 49.958 54.2844 49.958 54.2834C50.3046 53.9399 50.6414 53.6215 50.956 53.3186C51.4351 52.8516 51.8552 52.4194 52.1494 51.9996C52.4737 51.5423 52.6537 51.0956 52.614 50.6276C52.5831 50.2735 52.5192 49.9146 52.4301 49.5605C52.3885 49.3926 52.3421 49.2267 52.2917 49.0598C51.7574 47.3134 50.773 45.8024 50.773 45.8024C52.556 44.7633 55.9912 44.7314 55.9912 44.7314C55.9912 44.7314 56.0144 44.9186 56.058 45.2245C56.2254 46.4527 56.6949 49.601 57.1759 50.1394C57.777 50.8109 67.2744 52.757 67.6044 51.6803C67.9297 50.6218 65.9686 46.1671 65.8951 45.9983C65.8931 45.9954 65.8931 45.9925 65.8931 45.9925C68.9344 46.7132 70.2556 47.5276 70.3156 47.5758C70.3156 47.5758 70.3137 47.5758 70.3127 47.5749C68.6624 49.0173 71.8798 52.6181 71.0135 56.545Z" fill="#FF9843"/>
<path d="M65.6279 39.6352C65.6279 39.6352 65.3269 41.3642 65.1584 43.0045C62.0601 42.607 60.7011 39.6179 60.1862 37.9844L65.6279 39.6352Z" fill="#ED985F"/>
<path d="M66.5096 41.2932C66.5096 41.2932 59.1466 40.6805 59.5995 36.1148C60.0525 31.5502 59.4079 28.3961 64.1285 28.5948C68.8491 28.7926 69.5877 30.6249 69.8083 32.185C70.029 33.7452 68.4368 41.3347 66.5096 41.2932Z" fill="#FFB27D"/>
<path d="M69.8452 29.6251C68.8463 28.1382 67.9578 28.3544 67.4351 28.7191C63.6379 26.1159 60.7225 29.1137 60.7225 29.1137C59.9016 32.3401 57.3444 33.9794 57.3444 33.9794C57.3444 33.9794 58.6017 34.9385 61.7698 34.4551C62.7377 34.3075 63.6475 33.7228 64.4451 32.9837C62.9855 34.9481 61.1329 36.2825 61.1329 36.2825C64.993 34.951 66.9889 29.983 67.1911 29.4572C67.5996 29.9039 68.3962 30.8649 68.5801 31.7468C68.8299 32.9461 68.7544 35.3553 69.4619 35.3437C69.461 35.3427 71.3426 31.8539 69.8452 29.6251Z" fill="#2C3A64"/>
<path d="M102.698 63.7633C101.961 64.4629 101.217 66.2121 98.9491 66.1784C97.3307 66.1648 95.6929 66.3462 94.8992 66.4437C94.5905 66.4977 94.4114 66.5189 94.4114 66.5189L94.3301 63.9582C94.3301 63.9582 94.363 63.9611 94.4366 63.9496C94.9844 63.8675 97.7672 63.4411 98.8687 62.7126C100.105 61.8867 102.996 62.6518 102.996 62.6518C102.996 62.6518 103.439 63.0773 102.698 63.7633Z" fill="#FFB27D"/>
<path d="M54.8209 149.261H43.3896C43.3896 149.261 43.1157 147.524 43.7129 146.206C44.2849 144.942 45.1813 144.367 44.9664 142.838C45.6923 143.584 46.8771 144.418 48.5293 144.196C48.7316 144.523 49.836 146.275 50.5126 146.759C51.2589 147.295 54.5905 147.103 54.8209 149.261Z" fill="#233862"/>
<path d="M79.3657 149.26H67.9344C67.9344 149.26 67.5066 147.442 68.2577 146.206C68.9217 145.111 68.6672 144.488 68.1755 143.583C68.6933 143.794 69.3631 143.986 70.1007 143.945C70.6698 143.912 71.2728 143.654 71.8004 143.349C72.2921 143.907 74.3993 146.288 75.0575 146.759C75.8047 147.294 79.1354 147.103 79.3657 149.26Z" fill="#233862"/>
<path d="M64.7539 38.6522C64.7539 38.6522 64.8565 39.2562 66.3491 39.2582C66.3491 39.2582 67.6016 39.2591 67.6045 38.603C67.6045 38.603 66.4236 38.0608 64.7539 38.6522Z" fill="white"/>
<path d="M52.3595 67.6686C51.9075 70.5236 49.8361 76.2528 50.7992 78.9891C48.4045 78.6456 46.7184 78.1217 46.6022 77.4299C45.4242 74.7824 48.3077 69.8375 49.9726 67.3241C50.1816 67.0086 50.3617 66.6767 50.5098 66.3332C50.8863 65.4687 51.0673 64.527 51.0295 63.5776C50.9792 62.2789 50.8679 61.0179 50.7324 59.8359C50.7324 59.8359 52.8405 64.6341 52.3595 67.6686Z" fill="#ED7D2B"/>
<path d="M68.5404 48.4054C68.6198 50.9429 70.4608 57.9091 70.8983 56.9896C71.3977 55.9408 73.3307 51.9541 74.2386 51.8074C74.1912 51.6231 70.4753 47.5283 70.3127 47.5756C70.3117 47.5766 69.3022 47.8834 68.5404 48.4054Z" fill="#FF9843"/>
<path d="M51.0121 84.4007L49.1159 85.6589C49.1159 85.6589 48.6358 85.0607 47.876 84.1055C47.6485 83.818 47.5275 83.6443 47.5275 83.6443C46.9264 82.8724 46.2276 81.9249 45.4629 80.8974L45.4503 80.8858C44.1698 79.0921 42.7624 77.0534 41.6861 75.2096C40.9378 73.9022 40.3551 72.6923 40.0706 71.741C40.0396 71.6454 40.0222 71.5625 40.0028 71.4544C39.4463 69.0413 40.4674 64.2508 42.0926 59.5762C42.3162 58.9297 42.5514 58.2939 42.7769 57.6725C43.6413 55.38 44.6131 53.2255 45.5888 51.485C46.1608 50.4381 46.7309 49.5253 47.2807 48.8442C47.4714 48.6001 47.6505 48.3704 47.844 48.1746C47.9486 48.0559 48.0531 47.942 48.1567 47.833C49.2959 47.9285 51.6858 48.3791 53.46 50.4207C53.43 50.5278 53.3981 50.6349 53.3661 50.7449C52.6489 53.0509 51.5416 55.8808 50.3936 58.6547C49.7693 60.1782 49.1304 61.6901 48.571 63.1123C48.2157 63.9624 47.8953 64.7728 47.605 65.5216C47.0591 66.9544 46.6535 68.1469 46.4928 68.9834C46.3834 69.5257 46.5393 70.5455 46.8326 71.7998C47.3359 73.9862 48.2941 76.9299 49.1856 79.4289C49.5495 80.4719 49.9086 81.4425 50.2087 82.2472C50.6869 83.5497 51.0121 84.4007 51.0121 84.4007Z" fill="#FFB27D"/>
<path d="M51.8416 57.6392C49.9473 54.789 44.5182 53.5627 44.5182 53.5627C47.5817 43.8727 55.6252 44.771 55.6252 44.771C55.6252 44.771 52.6992 54.8527 51.8416 57.6392Z" fill="#FF9843"/>
<path d="M49.116 85.6605C49.116 85.6605 49.6145 86.3938 49.6696 86.9206C49.7258 87.4484 50.1991 89.1967 50.8108 89.7514C51.4235 90.3062 52.8154 91.4168 53.01 91.2499C53.2045 91.0829 53.7688 89.7746 53.2461 88.8493C53.01 88.4315 52.6896 87.267 52.2676 86.9852C51.7546 86.6427 51.0112 84.4014 51.0112 84.4014L49.116 85.6605Z" fill="#FFB27D"/>
<path d="M51.0198 84.6855C51.0198 84.6855 52.5278 85.4487 52.7321 86.0595C52.9363 86.6702 53.7794 87.9014 53.6922 88.0442C53.5993 88.1966 52.2887 87.364 51.8435 86.6056C51.3982 85.8472 51.0198 84.6855 51.0198 84.6855Z" fill="#FFB27D"/>
<path d="M86.9098 77.5862L142.14 44.627C145.186 42.8092 148.988 42.8092 152.033 44.627L207.264 77.5862V131.305L86.9108 125.29V77.5862H86.9098Z" fill="#ED7D2B"/>
<path d="M196.904 53.7842H97.2695V139.613H196.904V53.7842Z" fill="#FCECDB"/>
<path d="M101.73 58.4712C102.252 58.2554 102.5 57.6583 102.284 57.1374C102.068 56.6165 101.468 56.3692 100.946 56.5849C100.423 56.8007 100.175 57.3978 100.392 57.9187C100.608 58.4396 101.207 58.6869 101.73 58.4712Z" fill="#EFCBAB"/>
<path d="M191.753 57.5286C191.753 56.9652 192.211 56.5078 192.777 56.5078C193.342 56.5078 193.801 56.9652 193.801 57.5286C193.801 58.0921 193.342 58.5494 192.777 58.5494C192.21 58.5504 191.753 58.0931 191.753 57.5286Z" fill="#EFCBAB"/>
<path d="M192.777 57.418H101.335V57.6405H192.777V57.418Z" fill="#EFCBAB"/>
<path d="M101.446 57.123H101.224V148.273H101.446V57.123Z" fill="#EFCBAB"/>
<path d="M192.924 57.123H192.701V148.273H192.924V57.123Z" fill="#EFCBAB"/>
<path d="M207.263 77.4375V149.26H86.9098V77.4375L147.086 113.349L207.263 77.4375Z" fill="#FF9843"/>
<path d="M86.9098 149.261L142.035 109.866C145.055 107.707 149.118 107.707 152.138 109.866L207.263 149.261H86.9098Z" fill="#ED7D2B"/>
<path d="M165.458 65.675H129.131C128.604 65.675 128.172 65.2447 128.172 64.7189C128.172 64.193 128.604 63.7627 129.131 63.7627H165.458C165.985 63.7627 166.417 64.193 166.417 64.7189C166.417 65.2447 165.985 65.675 165.458 65.675Z" fill="#EFCBAB"/>
<path d="M174.815 69.511H119.773C119.246 69.511 118.814 69.0806 118.814 68.5548C118.814 68.029 119.246 67.5986 119.773 67.5986H174.815C175.342 67.5986 175.774 68.029 175.774 68.5548C175.774 69.0806 175.342 69.511 174.815 69.511Z" fill="#EFCBAB"/>
<path d="M167.677 81.408H127.853C127.472 81.408 127.159 81.0964 127.159 80.7162C127.159 80.3361 127.472 80.0244 127.853 80.0244H167.677C168.058 80.0244 168.371 80.3361 168.371 80.7162C168.37 81.0973 168.058 81.408 167.677 81.408Z" fill="#EFCBAB"/>
<path d="M131.852 85.0203H120.623C120.242 85.0203 119.929 84.7087 119.929 84.3285C119.929 83.9484 120.242 83.6367 120.623 83.6367H131.852C132.233 83.6367 132.546 83.9484 132.546 84.3285C132.546 84.7096 132.233 85.0203 131.852 85.0203Z" fill="#EFCBAB"/>
<path d="M148.786 85.0203H135.22C134.839 85.0203 134.526 84.7087 134.526 84.3285C134.526 83.9484 134.839 83.6367 135.22 83.6367H148.786C149.167 83.6367 149.48 83.9484 149.48 84.3285C149.48 84.7096 149.168 85.0203 148.786 85.0203Z" fill="#EFCBAB"/>
<path d="M174.907 85.0203H151.454C151.073 85.0203 150.76 84.7087 150.76 84.3285C150.76 83.9484 151.073 83.6367 151.454 83.6367H174.907C175.288 83.6367 175.601 83.9484 175.601 84.3285C175.601 84.7096 175.288 85.0203 174.907 85.0203Z" fill="#EFCBAB"/>
<path d="M148.876 89.2215H127.063C126.681 89.2215 126.369 88.9098 126.369 88.5297C126.369 88.1495 126.681 87.8379 127.063 87.8379H148.876C149.257 87.8379 149.57 88.1495 149.57 88.5297C149.57 88.9098 149.257 89.2215 148.876 89.2215Z" fill="#EFCBAB"/>
<path d="M168.467 89.2215H151.286C150.905 89.2215 150.592 88.9098 150.592 88.5297C150.592 88.1495 150.905 87.8379 151.286 87.8379H168.467C168.848 87.8379 169.161 88.1495 169.161 88.5297C169.161 88.9098 168.848 89.2215 168.467 89.2215Z" fill="#EFCBAB"/>
<path d="M155.003 97.7611C153.691 98.8466 152.287 99.7516 150.808 100.577C150.933 100.187 151.037 99.7805 151.018 99.4197C150.992 98.9218 150.593 98.7038 150.194 98.4973C150.095 98.4461 150.004 98.3921 149.912 98.3381C150.066 98.1866 150.146 97.9772 150.043 97.7486C149.875 97.3713 149.402 97.4321 149.243 97.7814C149.213 97.846 149.196 97.9087 149.189 97.9695C149.125 97.9357 149.075 97.8991 149.033 97.8479C149.276 97.3954 149.505 96.9342 149.716 96.4634C149.763 96.3573 149.703 96.2328 149.618 96.1681C149.268 95.9047 148.79 95.9896 148.508 96.3206C148.174 96.7133 148.258 97.3105 148.418 97.7563C148.43 97.7872 148.441 97.819 148.455 97.8499C148.145 98.4076 147.808 98.9488 147.447 99.4756C147.413 99.4419 147.379 99.4081 147.346 99.3753C147.252 99.2836 147.151 99.1669 147.064 99.0376C147.229 98.6082 147.335 98.1567 147.375 97.6878C147.392 97.4784 147.182 97.3752 147.006 97.4398C146.52 97.6193 146.259 98.1113 146.321 98.6179C146.343 98.7916 146.4 98.9575 146.479 99.1119C146.371 99.3463 146.242 99.5741 146.09 99.7931C145.991 99.9349 146.062 100.08 146.178 100.147C146.019 100.676 145.805 101.216 145.439 101.597C145.14 101.908 144.582 102.144 144.218 101.775C143.988 101.541 143.959 101.151 143.927 100.842C143.849 100.081 143.791 99.2904 143.819 98.5243C143.833 98.1615 143.872 97.7929 143.996 97.4504C144.073 97.2372 144.181 96.9149 144.285 97.2816C144.336 97.462 144.266 97.7408 144.247 97.9242C144.214 98.2512 144.723 98.2889 144.756 97.9637C144.795 97.5797 144.967 96.775 144.532 96.5348C144.171 96.3351 143.839 96.6216 143.671 96.9207C143.069 97.9975 143.309 99.4756 143.399 100.646C143.472 101.579 143.821 102.724 145.017 102.427C146.141 102.148 146.555 100.735 146.813 99.7622C146.83 99.7014 146.824 99.6464 146.805 99.5991C146.809 99.5914 146.814 99.5827 146.819 99.575C146.865 99.6223 146.912 99.6676 146.959 99.7149C147.026 99.7738 147.089 99.8355 147.15 99.8992C147.032 100.062 146.912 100.224 146.788 100.385C146.718 100.475 146.739 100.611 146.808 100.695C147.187 101.15 147.867 100.813 147.854 100.254C147.851 100.125 147.819 100.01 147.769 99.905C148.124 99.3955 148.456 98.8707 148.764 98.3323C148.923 98.4886 149.128 98.5889 149.377 98.5774C149.395 98.5764 149.411 98.5745 149.429 98.5725C149.559 98.7105 149.724 98.8253 149.874 98.9102C150.019 98.9913 150.186 99.0424 150.317 99.1485C150.56 99.3463 150.487 99.5721 150.434 99.8529C150.364 100.222 150.246 100.591 150.138 100.952C149.624 101.246 149.117 101.62 148.944 102.21C148.786 102.748 148.926 103.315 149.389 103.649C149.528 103.749 149.713 103.668 149.772 103.522C150.063 102.811 150.325 102.088 150.549 101.354C150.556 101.331 150.564 101.307 150.572 101.284C151.026 101.026 151.501 100.799 151.95 100.535C153.142 99.8317 154.272 99.0299 155.338 98.148C155.593 97.9348 155.256 97.5517 155.003 97.7611ZM148.796 97.0828C148.791 96.8792 148.899 96.5058 149.134 96.5107C149.028 96.7403 148.917 96.968 148.803 97.1928C148.8 97.1561 148.797 97.1185 148.796 97.0828ZM149.445 102.966C149.23 102.565 149.538 102.07 149.889 101.743C149.752 102.155 149.603 102.562 149.445 102.966Z" fill="#F99746"/>
<g opacity="0.5">
<path d="M144.936 18.5371L150.124 29.9474L131.003 38.5857L125.815 27.1754L137.969 28.5619L144.936 18.5371Z" fill="#CDE0FB"/>
<path d="M125.815 27.1754L144.936 18.5361L139.219 28.1402C138.768 28.8976 137.894 29.298 137.024 29.1446L125.815 27.1754Z" fill="#B1CFF2"/>
</g>
<g opacity="0.5">
<path d="M32.5255 93.0439L35.2541 100.339L23.0291 104.884L20.2996 97.5874L27.7768 98.9633L32.5255 93.0439Z" fill="#CDE0FB"/>
<path d="M20.2996 97.5874L32.5255 93.043L28.5706 98.7558C28.2589 99.2064 27.6994 99.4168 27.1661 99.2855L20.2996 97.5874Z" fill="#B1CFF2"/>
</g>
<g opacity="0.5">
<path d="M241.888 49.6197L238.053 63.9458L214.047 57.5595L217.882 43.2334L227.967 53.5901L241.888 49.6197Z" fill="#CDE0FB"/>
<path d="M217.882 43.2334L241.888 49.6188L229.427 54.1381C228.445 54.4941 227.343 54.2076 226.662 53.4164L217.882 43.2334Z" fill="#B1CFF2"/>
</g>
<path d="M27.258 125.301C26.6773 125.299 26.1149 125.292 25.5845 125.277C25.5225 125.275 25.4741 125.224 25.4761 125.163C25.478 125.102 25.5274 125.054 25.5903 125.055C26.1188 125.07 26.6802 125.078 27.258 125.079C27.32 125.079 27.3693 125.13 27.3693 125.19C27.3693 125.252 27.319 125.301 27.258 125.301ZM28.9306 125.289C28.8696 125.289 28.8203 125.241 28.8193 125.18C28.8183 125.119 28.8677 125.068 28.9287 125.067C29.4639 125.058 30.0263 125.044 30.5993 125.025C30.6632 125.021 30.7126 125.072 30.7145 125.133C30.7164 125.194 30.668 125.245 30.6071 125.247C30.0321 125.267 29.4688 125.28 28.9325 125.29C28.9316 125.289 28.9316 125.289 28.9306 125.289ZM23.9177 125.206C23.9157 125.206 23.9128 125.206 23.9109 125.206C23.3214 125.17 22.76 125.125 22.2412 125.07C22.1802 125.063 22.1357 125.009 22.1425 124.947C22.1493 124.887 22.2044 124.842 22.2654 124.849C22.7813 124.904 23.3398 124.949 23.9254 124.985C23.9864 124.989 24.0338 125.041 24.03 125.103C24.0251 125.161 23.9767 125.206 23.9177 125.206ZM32.2748 125.181C32.2158 125.181 32.1664 125.134 32.1635 125.075C32.1606 125.014 32.208 124.962 32.27 124.959C32.8062 124.934 33.3676 124.905 33.9397 124.872C34.0006 124.87 34.0539 124.915 34.0577 124.976C34.0616 125.037 34.0142 125.09 33.9532 125.093C33.3812 125.126 32.8178 125.155 32.2816 125.18C32.2787 125.181 32.2768 125.181 32.2748 125.181ZM35.6152 124.989C35.5571 124.989 35.5077 124.944 35.5038 124.886C35.5 124.825 35.5464 124.772 35.6074 124.767C36.1562 124.73 36.7118 124.69 37.2752 124.647C37.3361 124.642 37.3903 124.689 37.3942 124.75C37.3991 124.81 37.3526 124.864 37.2916 124.868C36.7283 124.911 36.1717 124.951 35.6219 124.988C35.621 124.989 35.6181 124.989 35.6152 124.989ZM20.5986 124.839C20.5919 124.839 20.5851 124.839 20.5793 124.837C19.9646 124.727 19.4139 124.596 18.9415 124.447C18.8825 124.428 18.8505 124.365 18.8689 124.307C18.8873 124.248 18.9502 124.216 19.0093 124.234C19.472 124.381 20.014 124.51 20.619 124.618C20.6799 124.629 20.7196 124.687 20.709 124.748C20.6983 124.802 20.6519 124.839 20.5986 124.839ZM38.9516 124.736C38.8945 124.736 38.8451 124.693 38.8403 124.635C38.8355 124.574 38.881 124.52 38.9419 124.515C39.4917 124.469 40.0473 124.42 40.6078 124.369C40.6697 124.364 40.7229 124.409 40.7287 124.47C40.7346 124.53 40.6891 124.585 40.6281 124.59C40.0667 124.641 39.5111 124.69 38.9613 124.736C38.9574 124.736 38.9545 124.736 38.9516 124.736ZM42.2832 124.435C42.2261 124.435 42.1777 124.392 42.1729 124.335C42.1671 124.274 42.2116 124.219 42.2726 124.213C42.8234 124.16 43.378 124.104 43.9365 124.047C43.9975 124.042 44.0526 124.085 44.0584 124.146C44.0642 124.207 44.0207 124.262 43.9587 124.268C43.4002 124.325 42.8447 124.381 42.2939 124.434C42.29 124.435 42.2862 124.435 42.2832 124.435ZM45.61 124.094C45.5539 124.094 45.5055 124.052 45.4997 123.995C45.4929 123.934 45.5374 123.879 45.5984 123.872C46.1492 123.814 46.7038 123.752 47.2604 123.689C47.3213 123.682 47.3765 123.726 47.3833 123.787C47.3901 123.847 47.3465 123.902 47.2855 123.909C46.728 123.972 46.1743 124.033 45.6226 124.092C45.6187 124.094 45.6139 124.094 45.61 124.094ZM17.4703 123.747C17.448 123.747 17.4248 123.74 17.4045 123.726C17.0821 123.491 16.8489 123.226 16.7124 122.938C16.6127 122.727 16.5294 122.516 16.4646 122.309C16.4462 122.251 16.4791 122.189 16.5381 122.17C16.5962 122.152 16.6591 122.185 16.6775 122.244C16.7385 122.44 16.8179 122.641 16.9137 122.843C17.0347 123.098 17.2438 123.334 17.5361 123.546C17.5855 123.582 17.5971 123.652 17.5603 123.702C17.538 123.731 17.5041 123.747 17.4703 123.747ZM48.9339 123.721C48.8778 123.721 48.8304 123.679 48.8236 123.623C48.8168 123.562 48.8604 123.507 48.9213 123.499C49.4731 123.434 50.0258 123.369 50.5813 123.302C50.6423 123.295 50.6975 123.338 50.7052 123.399C50.713 123.46 50.6694 123.515 50.6084 123.522C50.0529 123.59 49.4992 123.655 48.9475 123.72C48.9426 123.721 48.9388 123.721 48.9339 123.721ZM52.2549 123.32C52.1997 123.32 52.1513 123.278 52.1446 123.222C52.1368 123.161 52.1804 123.105 52.2413 123.099C52.7911 123.03 53.3429 122.961 53.8946 122.889C53.9556 122.883 54.0117 122.925 54.0194 122.986C54.0272 123.047 53.9846 123.103 53.9236 123.11C53.3709 123.181 52.8202 123.251 52.2694 123.32C52.2636 123.32 52.2597 123.32 52.2549 123.32ZM55.5643 122.895C55.5091 122.895 55.4617 122.855 55.4539 122.799C55.4462 122.738 55.4888 122.682 55.5498 122.674C56.1024 122.602 56.6551 122.527 57.2078 122.453C57.2698 122.445 57.3249 122.488 57.3327 122.549C57.3414 122.609 57.2978 122.665 57.2369 122.673C56.6842 122.747 56.1305 122.822 55.5778 122.894C55.5739 122.895 55.5691 122.895 55.5643 122.895ZM58.8833 122.447C58.8281 122.447 58.7807 122.407 58.773 122.352C58.7643 122.291 58.8068 122.235 58.8678 122.226C59.4205 122.15 59.9722 122.073 60.524 121.996C60.584 121.987 60.6411 122.03 60.6498 122.09C60.6585 122.151 60.6159 122.207 60.5549 122.216C60.0032 122.293 59.4505 122.37 58.8988 122.446C58.894 122.447 58.8882 122.447 58.8833 122.447ZM62.1956 121.981C62.1414 121.981 62.0939 121.942 62.0852 121.886C62.0765 121.825 62.1191 121.769 62.1801 121.76C62.7328 121.681 63.2845 121.601 63.8353 121.521C63.8962 121.511 63.9524 121.554 63.9621 121.615C63.9708 121.676 63.9292 121.731 63.8682 121.74C63.3174 121.82 62.7657 121.9 62.213 121.979C62.2062 121.981 62.2004 121.981 62.1956 121.981ZM65.5049 121.498C65.4507 121.498 65.4033 121.458 65.3946 121.403C65.3859 121.343 65.4275 121.287 65.4885 121.277C66.0422 121.195 66.5929 121.112 67.1417 121.029C67.2027 121.019 67.2588 121.062 67.2685 121.123C67.2782 121.183 67.2356 121.239 67.1756 121.249C66.6268 121.332 66.0751 121.415 65.5214 121.497C65.5156 121.498 65.5098 121.498 65.5049 121.498ZM68.8114 120.999C68.7572 120.999 68.7098 120.96 68.7011 120.905C68.6914 120.844 68.733 120.787 68.794 120.778C69.3476 120.693 69.8994 120.608 70.4463 120.523C70.5072 120.515 70.5643 120.555 70.573 120.616C70.5827 120.677 70.5411 120.734 70.4801 120.743C69.9323 120.827 69.3815 120.912 68.8269 120.997C68.823 120.998 68.8172 120.999 68.8114 120.999ZM16.4617 120.746C16.4539 120.746 16.4472 120.745 16.4394 120.744C16.3794 120.732 16.3397 120.674 16.3523 120.614C16.4597 120.084 16.7104 119.574 17.0986 119.098C17.1373 119.05 17.208 119.043 17.2554 119.082C17.3028 119.121 17.3106 119.19 17.2718 119.238C16.9069 119.687 16.6708 120.165 16.5711 120.659C16.5594 120.71 16.513 120.746 16.4617 120.746ZM72.1169 120.485C72.0627 120.485 72.0153 120.446 72.0066 120.391C71.9969 120.331 72.0385 120.274 72.0995 120.264C72.6541 120.176 73.2049 120.089 73.7508 120.001C73.8108 119.992 73.8689 120.033 73.8785 120.093C73.8882 120.154 73.8466 120.211 73.7866 120.221C73.2407 120.307 72.6899 120.395 72.1343 120.483C72.1285 120.485 72.1227 120.485 72.1169 120.485ZM75.4205 119.958C75.3672 119.958 75.3198 119.919 75.3111 119.864C75.3014 119.804 75.3421 119.747 75.403 119.737C75.9586 119.647 76.5094 119.558 77.0534 119.469C77.1143 119.459 77.1715 119.5 77.1811 119.561C77.1908 119.621 77.1502 119.678 77.0892 119.688C76.5442 119.777 75.9944 119.866 75.4379 119.956C75.4321 119.957 75.4263 119.958 75.4205 119.958ZM78.7211 119.418C78.6679 119.418 78.6204 119.379 78.6117 119.325C78.6021 119.264 78.6427 119.207 78.7037 119.198C79.2612 119.105 79.811 119.013 80.354 118.923C80.416 118.912 80.4721 118.954 80.4828 119.014C80.4934 119.075 80.4518 119.132 80.3918 119.142C79.8488 119.233 79.299 119.324 78.7414 119.417C78.7337 119.418 78.7279 119.418 78.7211 119.418ZM82.0218 118.866C81.9685 118.866 81.9211 118.827 81.9124 118.773C81.9017 118.712 81.9434 118.656 82.0034 118.645C82.5628 118.55 83.1126 118.457 83.6527 118.364C83.7137 118.354 83.7708 118.394 83.7815 118.455C83.7921 118.516 83.7515 118.573 83.6905 118.583C83.1504 118.676 82.6006 118.769 82.0411 118.864C82.0334 118.865 82.0276 118.866 82.0218 118.866ZM85.3195 118.301C85.2663 118.301 85.2198 118.264 85.2101 118.21C85.1995 118.149 85.2402 118.092 85.3011 118.081C85.8635 117.984 86.4143 117.888 86.9495 117.795C87.0105 117.784 87.0676 117.825 87.0783 117.885C87.0889 117.945 87.0482 118.002 86.9882 118.013C86.452 118.107 85.9022 118.202 85.3389 118.3C85.3321 118.3 85.3263 118.301 85.3195 118.301ZM18.4188 118.167C18.384 118.167 18.3492 118.151 18.3279 118.12C18.293 118.07 18.3046 118 18.3559 117.966C18.777 117.673 19.2677 117.39 19.8165 117.123C19.8717 117.096 19.9385 117.12 19.9656 117.174C19.9927 117.229 19.9695 117.296 19.9143 117.323C19.3761 117.585 18.8951 117.862 18.4837 118.148C18.4624 118.161 18.4401 118.167 18.4188 118.167ZM88.6173 117.725C88.564 117.725 88.5176 117.688 88.5079 117.634C88.4972 117.573 88.5379 117.516 88.5979 117.505C89.1671 117.405 89.7168 117.308 90.2463 117.213C90.3063 117.202 90.3644 117.242 90.375 117.303C90.3857 117.364 90.346 117.421 90.285 117.431C89.7556 117.526 89.2058 117.623 88.6366 117.723C88.6299 117.725 88.6231 117.725 88.6173 117.725ZM91.9131 117.138C91.8598 117.138 91.8134 117.1 91.8037 117.046C91.7931 116.985 91.8327 116.928 91.8937 116.917C92.4755 116.812 93.0252 116.712 93.5421 116.619C93.6031 116.607 93.6602 116.648 93.6718 116.708C93.6825 116.767 93.6428 116.825 93.5818 116.837C93.0649 116.931 92.5151 117.031 91.9334 117.136C91.9266 117.138 91.9199 117.138 91.9131 117.138ZM21.404 116.681C21.3585 116.681 21.3159 116.653 21.2994 116.609C21.2781 116.551 21.3072 116.488 21.3652 116.466C21.8589 116.283 22.3951 116.104 22.9604 115.937C23.0194 115.919 23.0814 115.952 23.0988 116.011C23.1162 116.07 23.0833 116.131 23.0243 116.149C22.4638 116.316 21.9324 116.492 21.4436 116.674C21.4301 116.679 21.4165 116.681 21.404 116.681ZM95.2108 116.538C95.1586 116.538 95.1111 116.5 95.1015 116.447C95.0898 116.386 95.1305 116.329 95.1905 116.318C95.8187 116.202 96.3714 116.1 96.8399 116.012C96.8999 116 96.9589 116.04 96.9696 116.101C96.9812 116.161 96.9415 116.219 96.8805 116.23C96.4111 116.318 95.8584 116.42 95.2302 116.536C95.2244 116.537 95.2176 116.538 95.2108 116.538ZM98.5125 115.92C98.4602 115.92 98.4137 115.884 98.4031 115.83C98.3915 115.771 98.4311 115.712 98.4912 115.7C98.6044 115.679 98.6683 115.666 98.6818 115.664C98.7477 115.648 98.8183 115.702 98.8183 115.772C98.8183 115.863 98.8077 115.865 98.5328 115.918C98.527 115.919 98.5202 115.92 98.5125 115.92ZM24.6078 115.718C24.5575 115.718 24.512 115.684 24.4994 115.633C24.4849 115.573 24.5217 115.513 24.5807 115.499C25.1015 115.371 25.6522 115.248 26.2194 115.132C26.2794 115.119 26.3385 115.158 26.3511 115.219C26.3636 115.279 26.3249 115.337 26.2639 115.35C25.6996 115.465 25.1518 115.587 24.6339 115.715C24.6252 115.717 24.6165 115.718 24.6078 115.718ZM27.8881 115.044C27.8349 115.044 27.7875 115.006 27.7788 114.952C27.7681 114.892 27.8088 114.835 27.8697 114.824C28.404 114.732 28.9616 114.645 29.5268 114.563C29.5888 114.553 29.644 114.595 29.6527 114.656C29.6614 114.717 29.6188 114.773 29.5588 114.782C28.9955 114.863 28.4399 114.951 27.9075 115.042C27.9007 115.043 27.8949 115.044 27.8881 115.044ZM31.2033 114.564C31.1481 114.564 31.0997 114.522 31.093 114.466C31.0852 114.405 31.1288 114.35 31.1898 114.343C31.7386 114.277 32.3 114.215 32.8575 114.16C32.9185 114.155 32.9737 114.199 32.9795 114.26C32.9853 114.32 32.9408 114.375 32.8798 114.381C32.3232 114.436 31.7637 114.497 31.2169 114.564C31.212 114.564 31.2082 114.564 31.2033 114.564ZM34.5388 114.235C34.4807 114.235 34.4323 114.19 34.4275 114.132C34.4227 114.072 34.4691 114.018 34.5301 114.013C35.5648 113.934 36.2085 113.906 36.2153 113.906C36.2772 113.901 36.3285 113.951 36.3314 114.012C36.3343 114.073 36.2859 114.125 36.225 114.128C36.2191 114.128 35.5784 114.155 34.5475 114.234C34.5446 114.235 34.5417 114.235 34.5388 114.235Z" fill="#AFCDFB"/>
<path d="M102.236 121.767L115.956 114.017L103.44 114.754L104.405 116.861L101.82 119.716L102.236 121.767Z" fill="#AFCDFB"/>
<path d="M115.956 114.017L101.579 116.643L91.1068 123.892L115.956 114.017Z" fill="white"/>
<path d="M103.44 114.754L115.956 114.017L102.863 110.192L103.44 114.754Z" fill="white"/>
<path d="M176.45 19.9317L192.026 22.3892L181.775 15.1934L181.214 17.4415L177.407 18.0686L176.45 19.9317Z" fill="#AFCDFB"/>
<path d="M192.026 22.3898L179.138 15.5163L166.417 14.6836L192.026 22.3898Z" fill="white"/>
<path d="M181.775 15.1935L192.026 22.3894L184.176 11.2676L181.775 15.1935Z" fill="white"/>
<path d="M223.616 82.841C223.616 82.841 220.44 83.061 218.096 88.7623C215.731 94.5128 221.02 94.4558 219.238 98.1194C217.456 101.783 221.803 103.968 223.122 106.968C224.442 109.968 231.092 117.203 231.619 120.504C232.145 123.804 238.058 117.073 238.058 117.073C238.058 117.073 244.069 110.682 241.914 106.969C238.361 100.849 241.438 99.5194 241.327 96.1019C241.217 92.6825 234.708 79.2142 223.616 82.841Z" fill="#233862"/>
<path d="M221.892 103.294C221.892 103.294 209.596 108.636 207.261 108.534C204.925 108.433 190.533 104.164 190.533 104.164L190.9 106.632C190.9 106.632 202.007 113 205.89 113.361C209.713 113.717 222.785 109.941 224.048 109.144C225.308 108.347 225.559 104.102 221.892 103.294Z" fill="#FFAD76"/>
<path d="M220.9 109.151C222.029 109.933 223.447 110.577 225.226 110.986C231.894 112.522 234.449 106.904 235.408 103.048C234.499 102.529 233.644 102.416 233.149 102.357C232.667 102.3 232.16 102.262 231.741 102.242C230.993 101.671 229.877 99.3309 229.63 95.6982L229.316 95.7822L224.061 97.216C224.061 97.216 224.302 98.8813 224.42 100.455C224.511 101.687 224.672 102.401 224.438 102.69C224.027 102.778 223.635 103.298 223.635 103.298C223.635 103.298 223.635 103.3 223.632 103.303C223.562 103.417 222.037 105.916 220.9 109.151Z" fill="#FFB27D"/>
<path d="M224.06 97.216C224.06 97.216 224.302 98.8794 224.419 100.455C227.397 100.158 228.778 97.3327 229.316 95.7822L224.06 97.216Z" fill="#ED985F"/>
<path d="M223.172 98.7789C223.172 98.7789 230.238 98.3901 229.928 94.0068C229.617 89.6235 230.32 86.6218 225.795 86.6846C221.27 86.7473 220.513 88.4811 220.259 89.9699C220.006 91.4577 221.326 98.7664 223.172 98.7789Z" fill="#FFB27D"/>
<path d="M237.422 123.472C238.059 120.221 240.141 107.228 238.059 103.048C237.312 101.545 234.38 101.41 231.163 101.541C230.162 102.186 226.347 104.62 224.78 104.316C224.764 104.313 224.733 104.306 224.692 104.296C223.955 104.112 223.822 103.133 224.438 102.688C224.439 102.687 222.698 102.996 220.72 103.368C219.602 103.577 216.588 105.133 216.588 105.133C216.588 105.133 218.105 107.866 220.344 108.811C219.964 112.205 220.53 113.702 224.062 121.542C227.047 128.168 223.659 134.135 223.659 134.135C223.659 134.135 241.231 148.218 241.329 141.047C241.401 135.649 236.606 127.629 237.422 123.472Z" fill="#739AF0"/>
<path d="M222.787 149.448C221.832 149.341 220.971 148.819 220.437 148.022C220.352 147.896 220.262 147.76 220.165 147.614C218.165 144.596 217.386 135.353 212.888 125.506C211.793 123.108 207.859 122.678 206.786 119.967C206.786 119.967 204.147 111.183 211.839 110.925C219.532 110.665 232.442 135.365 232.646 137.956C232.843 140.465 237.732 151.129 222.787 149.448Z" fill="#233862"/>
<path d="M192.211 149.247H203.161C203.161 149.247 203.57 147.506 202.851 146.321C202.215 145.273 202.459 144.676 202.929 143.809C202.434 144.011 201.792 144.196 201.085 144.155C200.539 144.124 199.963 143.877 199.457 143.584C198.986 144.119 196.968 146.399 196.338 146.851C195.622 147.363 192.431 147.181 192.211 149.247Z" fill="#172B4C"/>
<path d="M236.267 106.454C236.267 106.454 237.692 119.378 228.45 122.087C219.208 124.795 216.584 110.195 224.046 109.145C231.508 108.094 236.267 106.454 236.267 106.454Z" fill="#5486D6"/>
<path d="M206.536 113.463C205.877 118.39 203.302 133.942 198.76 141.528C197.296 143.974 202.449 145.345 202.477 145.339C203.168 145.158 204.32 144.06 204.851 143.583C208.538 140.27 216.023 130.89 216.023 123.37C216.023 119.704 216.088 112.701 213.413 110.921C211.765 109.825 206.798 111.506 206.536 113.463Z" fill="#233862"/>
<path d="M229.316 149.247C229.316 149.247 228.91 148.684 228.203 147.614C227.361 146.342 226.429 143.841 225.298 140.633C224.111 137.267 222.701 133.125 220.941 128.815C220.398 127.485 219.82 126.139 219.206 124.794C218.11 122.396 215.095 122.728 214.023 120.018C214.023 120.018 209.837 110.623 217.53 110.363C225.224 110.104 239.841 135.496 240.682 137.955C241.603 140.647 246.089 151.826 229.316 149.247Z" fill="#2B478B"/>
<path d="M200.249 149.247H211.198C211.198 149.247 211.608 147.506 210.889 146.321C210.253 145.273 210.497 144.676 210.967 143.809C210.47 144.011 209.83 144.196 209.123 144.155C208.577 144.124 208 143.877 207.495 143.584C207.024 144.119 205.005 146.399 204.375 146.851C203.66 147.363 200.469 147.181 200.249 149.247Z" fill="#233862"/>
<path d="M225.298 140.634C224.111 137.268 222.701 133.126 220.941 128.816C221.4 125.551 222.392 122.694 224.06 121.543C224.061 121.542 228.107 134.038 225.298 140.634Z" fill="#23407A"/>
<path d="M212.927 113.114C212.268 118.042 211.339 133.942 206.797 141.529C205.333 143.975 210.486 145.346 210.514 145.339C211.205 145.159 212.357 144.061 212.887 143.583C216.574 140.271 224.06 130.891 224.06 123.371C224.06 119.704 219.743 112.996 217.069 111.216C215.421 110.12 213.189 111.158 212.927 113.114Z" fill="#2B478B"/>
<path d="M199.37 100.192C199.37 100.192 198.81 98.772 197.788 98.8636C196.767 98.9563 187.495 100.192 187.495 100.192C187.495 100.192 188.575 100.45 188.982 101.155L193.26 113.718H204.23L199.37 100.192Z" fill="#EBF3FA"/>
<path d="M235.408 103.048C235.408 103.048 219.867 108.753 217.532 108.636C216.023 108.561 203.478 104.165 203.478 104.165L202.352 106.289C202.352 106.289 214.563 114.112 217.92 114.073C224.547 113.997 235.73 109.942 236.992 109.145C238.253 108.347 239.076 103.855 235.408 103.048Z" fill="#FFBF94"/>
<path d="M203.477 104.165C203.477 104.165 202.351 102.437 201.23 102.387C200.108 102.336 198.171 103.149 197.509 103.277C196.846 103.404 194.96 104.014 195.521 104.928C196.081 105.842 198.681 106.046 199.803 105.842C200.925 105.639 202.351 106.289 202.351 106.289L203.477 104.165Z" fill="#FFBF94"/>
<path d="M201.535 102.44C201.535 102.44 199.752 101.625 199.242 101.472C198.732 101.32 198.835 101.475 198.988 101.957C199.141 102.438 200.058 102.897 200.058 103.049C200.057 103.199 201.535 102.44 201.535 102.44Z" fill="#FFBF94"/>
<path d="M221.848 96.2585C221.848 96.2585 222.516 95.9951 224.396 96.1466C224.396 96.1466 224.296 96.8779 222.91 96.9503C222.125 96.9918 221.848 96.2585 221.848 96.2585Z" fill="white"/>
<path d="M227.401 105.862C227.401 105.862 228.791 110.248 233.565 111.245C233.565 111.245 241.448 108.825 237.523 103.472C237.523 103.472 233.643 100.597 227.401 105.862Z" fill="#739AF0"/>
<path d="M187.496 100.192C187.496 100.192 186.467 100.585 187.246 101.917L197.27 100.585C197.27 100.585 196.921 99.04 197.709 98.8721L187.496 100.192Z" fill="white"/>
<path d="M191.088 103.471C191.326 102.522 191.31 102.292 190.772 101.712C190.416 101.329 189.871 102.28 189.589 102.853C189.486 102.599 189.309 102.188 189.249 102.167C189.162 102.137 189.369 103.443 189.369 103.443C189.364 103.497 189.362 103.552 189.364 103.607L189.363 103.606C189.363 103.606 188.928 105.527 190.822 106.564L190.461 105.505C190.682 105.469 190.847 104.436 191.088 103.471Z" fill="#FFAD76"/>
<path d="M222.904 87.6535C222.904 87.6535 224.393 87.1335 225.115 88.6502C225.836 90.167 226.066 93.7938 228.958 94.09C231.85 94.3862 231.962 87.9469 231.962 87.9469L224.723 85.0977L220.901 87.503L222.904 87.6535Z" fill="#233862"/>
<path d="M222.904 87.6534C222.904 87.6534 221.273 87.6881 220.9 89.0573C220.527 90.4264 221.109 92.9803 220.206 93.1646C219.303 93.3499 218.482 88.9087 220.229 87.4653C221.976 86.0219 222.904 87.6534 222.904 87.6534Z" fill="#233862"/>
<path d="M94.8691 63.8813C94.8691 63.8813 96.502 63.2648 96.6869 62.8393C96.8728 62.4138 97.4109 62.2286 98.0604 61.9323C98.7099 61.6361 99.1 61.0997 99.1929 61.174C99.2858 61.2483 99.3042 61.6178 99.0448 61.8957C98.7844 62.1736 97.6839 64.1158 97.2696 64.3377C96.8544 64.5606 94.8691 63.8813 94.8691 63.8813Z" fill="#FFB27D"/>
<path d="M264.287 149.168H253.792C253.23 148.692 254.181 147.613 255.175 147.54C255.607 147.508 256.153 147.598 256.777 147.729C256.922 145.817 257.746 137.221 260.855 137.567C264.35 137.954 260.855 141.352 259.867 143.365C259.135 144.855 258.363 146.992 258.01 148.001C258.294 148.062 258.588 148.122 258.888 148.177C259.352 146.76 261.075 141.991 263.267 142.268C265.841 142.594 264.806 144.506 262.983 145.641C261.644 146.475 260.001 147.662 259.22 148.235C259.881 148.343 260.573 148.416 261.273 148.399C263.07 148.356 263.947 148.884 264.287 149.168Z" fill="#82B378"/>
<path d="M29.0816 149.381C29.0816 149.381 25.0928 138.46 22.2916 139.391C19.4904 140.321 29.0816 149.381 29.0816 149.381Z" fill="#82B378"/>
<path d="M27.5533 149.381C27.2135 149.381 20.8484 142.796 20.4235 144.52C19.9995 146.243 27.5533 149.381 27.5533 149.381Z" fill="#82B378"/>
<path d="M34.3442 149.381C34.3442 149.381 31.7115 146.975 28.3779 147.601C25.0443 148.227 23.6215 148.913 21.5278 148.439C19.4342 147.964 18.3646 149.38 18.3646 149.38H34.3442V149.381Z" fill="#82B378"/>
<path d="M279.683 150.001H0.317482C0.143254 150.001 0 149.859 0 149.684V149.576C0 149.403 0.142286 149.26 0.317482 149.26H279.684C279.858 149.26 280.001 149.402 280.001 149.576V149.684C280 149.858 279.858 150.001 279.683 150.001Z" fill="#2E3552"/>
<path d="M115.571 145.019H94.8342C93.6766 145.019 92.7377 144.084 92.7377 142.93V137.293C92.7377 136.139 93.6766 135.203 94.8342 135.203H115.571C116.729 135.203 117.668 136.139 117.668 137.293V142.93C117.668 144.084 116.729 145.019 115.571 145.019Z" fill="#FCECDB"/>
<path d="M111.353 137.644H95.7325C95.5583 137.644 95.415 137.502 95.415 137.327C95.415 137.154 95.5573 137.011 95.7325 137.011H111.353C111.527 137.011 111.671 137.153 111.671 137.327C111.671 137.501 111.527 137.644 111.353 137.644Z" fill="#EFCBAB"/>
<path d="M98.5027 139.007H95.7325C95.5583 139.007 95.415 138.865 95.415 138.69C95.415 138.517 95.5573 138.374 95.7325 138.374H98.5027C98.677 138.374 98.8202 138.516 98.8202 138.69C98.8202 138.865 98.677 139.007 98.5027 139.007Z" fill="#EFCBAB"/>
<path d="M107.23 139.007H99.5975C99.4233 139.007 99.28 138.865 99.28 138.69C99.28 138.517 99.4223 138.374 99.5975 138.374H107.23C107.404 138.374 107.547 138.516 107.547 138.69C107.547 138.865 107.404 139.007 107.23 139.007Z" fill="#EFCBAB"/>
<path d="M111.353 141.531H95.7325C95.5583 141.531 95.415 141.39 95.415 141.215C95.415 141.041 95.5573 140.898 95.7325 140.898H111.353C111.527 140.898 111.671 141.04 111.671 141.215C111.671 141.39 111.527 141.531 111.353 141.531Z" fill="#EFCBAB"/>
<path d="M101.402 142.895H95.7325C95.5583 142.895 95.415 142.753 95.415 142.578C95.415 142.405 95.5573 142.262 95.7325 142.262H101.402C101.576 142.262 101.719 142.404 101.719 142.578C101.719 142.753 101.577 142.895 101.402 142.895Z" fill="#EFCBAB"/>
<path d="M108.3 142.895H102.631C102.457 142.895 102.313 142.753 102.313 142.578C102.313 142.405 102.456 142.262 102.631 142.262H108.3C108.474 142.262 108.618 142.404 108.618 142.578C108.618 142.753 108.474 142.895 108.3 142.895Z" fill="#EFCBAB"/>
</g>
<defs>
<clipPath id="clip0_2034_27814">
<rect width="280" height="150" fill="white"/>
</clipPath>
</defs>
</svg>
