<svg width="114" height="30" viewBox="0 0 114 30" fill="none" xmlns="http://www.w3.org/2000/svg">
<path d="M0 29.5056V0.514173H19.8355V5.41859H5.8421V12.2808H17.9211V17.1852H5.8421V29.5056H0Z" fill="#38393A"/>
<path d="M24.4934 29.5056V0.514173H30.3355V29.5056H24.4934Z" fill="#38393A"/>
<path d="M42.4342 29.5056V5.41859H33.8487V0.514173H56.8421V5.41859H48.2763V29.5056H42.4342Z" fill="#38393A"/>
<path d="M59.6447 15.3856C59.6447 10.5735 60.9342 6.80949 63.5132 4.09361C66.0921 1.36454 69.4211 0 73.5 0C76.1711 0 78.5789 0.639421 80.7237 1.91826C82.8684 3.1971 84.5 4.98352 85.6184 7.27752C86.75 9.55834 87.3158 12.149 87.3158 15.0494C87.3158 17.9895 86.7237 20.6196 85.5395 22.94C84.3553 25.2604 82.6776 27.0204 80.5066 28.2202C78.3355 29.4067 75.9934 30 73.4803 30C70.7566 30 68.3224 29.3408 66.1776 28.0224C64.0329 26.704 62.4079 24.9044 61.3026 22.6236C60.1974 20.3428 59.6447 17.9301 59.6447 15.3856ZM63.5921 15.445C63.5921 18.9387 64.5263 21.6941 66.3947 23.7113C68.2763 25.7152 70.6316 26.7172 73.4605 26.7172C76.3421 26.7172 78.7105 25.702 80.5658 23.6717C82.4342 21.6414 83.3684 18.7607 83.3684 15.0297C83.3684 12.6697 82.9671 10.6131 82.1645 8.85959C81.375 7.09295 80.2105 5.72841 78.6711 4.76599C77.1447 3.79038 75.4276 3.30257 73.5197 3.30257C70.8092 3.30257 68.4737 4.23863 66.5132 6.11075C64.5658 7.96968 63.5921 11.0811 63.5921 15.445Z" fill="#38393A"/>
<path d="M90.9671 20.1912L94.5789 19.8748C94.75 21.325 95.1447 22.5181 95.7632 23.4542C96.3947 24.3771 97.3684 25.1285 98.6842 25.7086C100 26.2755 101.48 26.559 103.125 26.559C104.586 26.559 105.875 26.3415 106.993 25.9064C108.112 25.4713 108.941 24.878 109.48 24.1266C110.033 23.3619 110.309 22.5313 110.309 21.6348C110.309 20.7251 110.046 19.9341 109.52 19.2617C108.993 18.5761 108.125 18.0026 106.914 17.5412C106.138 17.238 104.421 16.7699 101.763 16.1371C99.1053 15.4911 97.2434 14.8846 96.1776 14.3177C94.7961 13.5926 93.7632 12.6961 93.0789 11.6282C92.4079 10.5471 92.0724 9.34081 92.0724 8.00923C92.0724 6.54581 92.4868 5.18128 93.3158 3.91562C94.1447 2.63678 95.3553 1.66777 96.9474 1.00857C98.5395 0.349374 100.309 0.0197764 102.257 0.0197764C104.401 0.0197764 106.289 0.36915 107.921 1.0679C109.566 1.75346 110.829 2.76862 111.711 4.11338C112.592 5.45814 113.066 6.98088 113.132 8.68161L109.461 8.95847C109.263 7.12591 108.592 5.7416 107.447 4.80554C106.316 3.86948 104.638 3.40145 102.414 3.40145C100.099 3.40145 98.4079 3.82993 97.3421 4.68688C96.2895 5.53065 95.7632 6.55241 95.7632 7.75214C95.7632 8.79367 96.1382 9.65063 96.8882 10.323C97.625 10.9954 99.5461 11.6875 102.651 12.3995C105.77 13.0982 107.908 13.7113 109.066 14.2386C110.75 15.0165 111.993 16.0053 112.796 17.205C113.599 18.3916 114 19.7627 114 21.3184C114 22.8609 113.559 24.3177 112.678 25.6889C111.796 27.0468 110.526 28.1081 108.868 28.8728C107.224 29.6243 105.368 30 103.303 30C100.684 30 98.4868 29.6177 96.7105 28.853C94.9474 28.0883 93.5592 26.9413 92.5461 25.412C91.5461 23.8695 91.0197 22.1292 90.9671 20.1912Z" fill="#38393A"/>
</svg>
