<svg width="375" height="287" viewBox="0 0 375 287" fill="none" xmlns="http://www.w3.org/2000/svg">
<g filter="url(#filter0_d_2010_26832)">
<rect x="20" y="18" width="335" height="56" rx="8" fill="white" shape-rendering="crispEdges"/>
<g clip-path="url(#clip0_2010_26832)">
<path d="M88.9387 47.8967L88.3058 50.2594L85.9926 50.3083C85.3013 49.0261 84.9092 47.5591 84.9092 46.0002C84.9092 44.4927 85.2758 43.0711 85.9257 41.8193H85.9262L87.9855 42.1969L88.8877 44.2439C88.6988 44.7944 88.5959 45.3853 88.5959 46.0002C88.596 46.6675 88.7169 47.3069 88.9387 47.8967Z" fill="#FBBB00"/>
<path d="M102.932 44.3018C103.037 44.8517 103.091 45.4196 103.091 46.0001C103.091 46.6509 103.023 47.2858 102.892 47.8982C102.45 49.9821 101.294 51.8018 99.6917 53.0895L99.6912 53.089L97.0973 52.9566L96.7302 50.6649C97.7931 50.0415 98.6238 49.066 99.0613 47.8982H94.2002V44.3018H99.1323H102.932Z" fill="#518EF8"/>
<path d="M99.691 53.0888L99.6915 53.0893C98.1335 54.3415 96.1545 55.0908 94.0002 55.0908C90.5381 55.0908 87.5282 53.1557 85.9927 50.3081L88.9387 47.8965C89.7065 49.9454 91.683 51.404 94.0002 51.404C94.9962 51.404 95.9293 51.1347 96.7299 50.6647L99.691 53.0888Z" fill="#28B446"/>
<path d="M99.8029 39.0021L96.8579 41.4132C96.0292 40.8952 95.0496 40.596 94.0002 40.596C91.6306 40.596 89.6171 42.1214 88.8878 44.2438L85.9263 41.8193H85.9258C87.4388 38.9022 90.4867 36.9092 94.0002 36.9092C96.206 36.9092 98.2285 37.6949 99.8029 39.0021Z" fill="#F14336"/>
</g>
<path d="M121.893 44.7536H120.034C119.981 44.4486 119.883 44.1785 119.741 43.9432C119.598 43.7045 119.421 43.5024 119.209 43.3366C118.997 43.1709 118.755 43.0466 118.483 42.9638C118.214 42.8776 117.924 42.8345 117.613 42.8345C117.059 42.8345 116.569 42.9737 116.141 43.2521C115.714 43.5272 115.379 43.9316 115.137 44.4652C114.895 44.9955 114.774 45.6435 114.774 46.4091C114.774 47.188 114.895 47.8442 115.137 48.3778C115.382 48.9081 115.717 49.3092 116.141 49.581C116.569 49.8494 117.058 49.9837 117.608 49.9837C117.913 49.9837 118.198 49.9439 118.463 49.8643C118.731 49.7815 118.972 49.6605 119.184 49.5014C119.399 49.3423 119.58 49.1468 119.726 48.9148C119.875 48.6828 119.978 48.4176 120.034 48.1193L121.893 48.1293C121.824 48.6132 121.673 49.0672 121.441 49.4915C121.212 49.9157 120.912 50.2902 120.541 50.6151C120.17 50.9366 119.736 51.1884 119.238 51.3707C118.741 51.5497 118.189 51.6392 117.583 51.6392C116.688 51.6392 115.889 51.4321 115.187 51.0178C114.484 50.6035 113.93 50.0052 113.526 49.223C113.122 48.4408 112.92 47.5028 112.92 46.4091C112.92 45.312 113.123 44.3741 113.531 43.5952C113.939 42.813 114.494 42.2147 115.197 41.8004C115.899 41.3861 116.695 41.179 117.583 41.179C118.15 41.179 118.677 41.2585 119.164 41.4176C119.651 41.5767 120.085 41.8104 120.466 42.1186C120.848 42.4235 121.161 42.7981 121.406 43.2422C121.655 43.683 121.817 44.1868 121.893 44.7536ZM132.68 46.4091C132.68 47.5062 132.475 48.4458 132.064 49.228C131.656 50.0069 131.099 50.6035 130.393 51.0178C129.691 51.4321 128.894 51.6392 128.002 51.6392C127.111 51.6392 126.312 51.4321 125.606 51.0178C124.903 50.6001 124.346 50.0019 123.935 49.223C123.528 48.4408 123.324 47.5028 123.324 46.4091C123.324 45.312 123.528 44.3741 123.935 43.5952C124.346 42.813 124.903 42.2147 125.606 41.8004C126.312 41.3861 127.111 41.179 128.002 41.179C128.894 41.179 129.691 41.3861 130.393 41.8004C131.099 42.2147 131.656 42.813 132.064 43.5952C132.475 44.3741 132.68 45.312 132.68 46.4091ZM130.826 46.4091C130.826 45.6368 130.705 44.9856 130.463 44.4553C130.224 43.9216 129.893 43.5189 129.469 43.2472C129.045 42.9721 128.556 42.8345 128.002 42.8345C127.449 42.8345 126.96 42.9721 126.536 43.2472C126.111 43.5189 125.778 43.9216 125.536 44.4553C125.298 44.9856 125.178 45.6368 125.178 46.4091C125.178 47.1813 125.298 47.8343 125.536 48.3679C125.778 48.8982 126.111 49.3009 126.536 49.576C126.96 49.8478 127.449 49.9837 128.002 49.9837C128.556 49.9837 129.045 49.8478 129.469 49.576C129.893 49.3009 130.224 48.8982 130.463 48.3679C130.705 47.8343 130.826 47.1813 130.826 46.4091ZM142.791 41.3182V51.5H141.151L136.353 44.5646H136.269V51.5H134.424V41.3182H136.075L140.867 48.2585H140.957V41.3182H142.791ZM144.354 42.8643V41.3182H152.477V42.8643H149.33V51.5H147.501V42.8643H144.354ZM155.888 41.3182V51.5H154.043V41.3182H155.888ZM166.252 41.3182V51.5H164.612L159.814 44.5646H159.73V51.5H157.885V41.3182H159.536L164.328 48.2585H164.418V41.3182H166.252ZM174.68 41.3182H176.525V47.9702C176.525 48.6993 176.353 49.3407 176.008 49.8942C175.666 50.4477 175.186 50.8802 174.566 51.1918C173.946 51.5 173.222 51.6541 172.393 51.6541C171.562 51.6541 170.836 51.5 170.216 51.1918C169.596 50.8802 169.116 50.4477 168.774 49.8942C168.433 49.3407 168.262 48.6993 168.262 47.9702V41.3182H170.107V47.8161C170.107 48.2403 170.199 48.6181 170.385 48.9496C170.574 49.281 170.839 49.5412 171.18 49.7301C171.522 49.9157 171.926 50.0085 172.393 50.0085C172.861 50.0085 173.265 49.9157 173.607 49.7301C173.951 49.5412 174.216 49.281 174.402 48.9496C174.588 48.6181 174.68 48.2403 174.68 47.8161V41.3182ZM178.53 51.5V41.3182H185.152V42.8643H180.374V45.6286H184.809V47.1747H180.374V49.9538H185.192V51.5H178.53ZM192.649 51.5L189.775 41.3182H191.759L193.594 48.8004H193.688L195.647 41.3182H197.452L199.415 48.8054H199.505L201.339 41.3182H203.323L200.449 51.5H198.63L196.591 44.3558H196.512L194.469 51.5H192.649ZM206.446 41.3182V51.5H204.602V41.3182H206.446ZM207.996 42.8643V41.3182H216.12V42.8643H212.973V51.5H211.143V42.8643H207.996ZM217.686 51.5V41.3182H219.53V45.6286H224.248V41.3182H226.098V51.5H224.248V47.1747H219.53V51.5H217.686ZM238.398 44.5696C238.315 44.3011 238.2 44.0608 238.055 43.8487C237.912 43.6333 237.74 43.4493 237.537 43.2969C237.339 43.1444 237.11 43.0301 236.851 42.9538C236.593 42.8743 236.311 42.8345 236.006 42.8345C235.459 42.8345 234.972 42.9721 234.545 43.2472C234.117 43.5223 233.781 43.9266 233.535 44.4602C233.293 44.9905 233.172 45.6368 233.172 46.3991C233.172 47.1681 233.293 47.8194 233.535 48.353C233.777 48.8866 234.114 49.2926 234.545 49.571C234.975 49.8461 235.476 49.9837 236.046 49.9837C236.563 49.9837 237.01 49.8842 237.388 49.6854C237.769 49.4865 238.063 49.2048 238.268 48.8402C238.474 48.4723 238.577 48.0414 238.577 47.5476L238.994 47.6122H236.23V46.1705H240.361V47.3935C240.361 48.2652 240.176 49.0192 239.805 49.6555C239.433 50.2919 238.923 50.7824 238.273 51.1271C237.624 51.4685 236.878 51.6392 236.036 51.6392C235.098 51.6392 234.274 51.4287 233.565 51.0078C232.859 50.5836 232.307 49.982 231.91 49.2031C231.515 48.4209 231.318 47.4929 231.318 46.419C231.318 45.5971 231.434 44.8629 231.666 44.2166C231.901 43.5703 232.229 43.0218 232.65 42.571C233.071 42.117 233.565 41.7723 234.132 41.5369C234.699 41.2983 235.315 41.179 235.981 41.179C236.545 41.179 237.07 41.2618 237.557 41.4276C238.045 41.59 238.477 41.822 238.855 42.1236C239.236 42.4252 239.549 42.7831 239.795 43.1974C240.04 43.6117 240.201 44.0691 240.277 44.5696H238.398ZM251.243 46.4091C251.243 47.5062 251.037 48.4458 250.626 49.228C250.219 50.0069 249.662 50.6035 248.956 51.0178C248.253 51.4321 247.456 51.6392 246.565 51.6392C245.673 51.6392 244.874 51.4321 244.168 51.0178C243.466 50.6001 242.909 50.0019 242.498 49.223C242.09 48.4408 241.886 47.5028 241.886 46.4091C241.886 45.312 242.09 44.3741 242.498 43.5952C242.909 42.813 243.466 42.2147 244.168 41.8004C244.874 41.3861 245.673 41.179 246.565 41.179C247.456 41.179 248.253 41.3861 248.956 41.8004C249.662 42.2147 250.219 42.813 250.626 43.5952C251.037 44.3741 251.243 45.312 251.243 46.4091ZM249.388 46.4091C249.388 45.6368 249.268 44.9856 249.026 44.4553C248.787 43.9216 248.455 43.5189 248.031 43.2472C247.607 42.9721 247.118 42.8345 246.565 42.8345C246.011 42.8345 245.522 42.9721 245.098 43.2472C244.674 43.5189 244.341 43.9216 244.099 44.4553C243.86 44.9856 243.741 45.6368 243.741 46.4091C243.741 47.1813 243.86 47.8343 244.099 48.3679C244.341 48.8982 244.674 49.3009 245.098 49.576C245.522 49.8478 246.011 49.9837 246.565 49.9837C247.118 49.9837 247.607 49.8478 248.031 49.576C248.455 49.3009 248.787 48.8982 249.026 48.3679C249.268 47.8343 249.388 47.1813 249.388 46.4091ZM262.085 46.4091C262.085 47.5062 261.879 48.4458 261.468 49.228C261.061 50.0069 260.504 50.6035 259.798 51.0178C259.095 51.4321 258.298 51.6392 257.406 51.6392C256.515 51.6392 255.716 51.4321 255.01 51.0178C254.307 50.6001 253.751 50.0019 253.34 49.223C252.932 48.4408 252.728 47.5028 252.728 46.4091C252.728 45.312 252.932 44.3741 253.34 43.5952C253.751 42.813 254.307 42.2147 255.01 41.8004C255.716 41.3861 256.515 41.179 257.406 41.179C258.298 41.179 259.095 41.3861 259.798 41.8004C260.504 42.2147 261.061 42.813 261.468 43.5952C261.879 44.3741 262.085 45.312 262.085 46.4091ZM260.23 46.4091C260.23 45.6368 260.109 44.9856 259.867 44.4553C259.629 43.9216 259.297 43.5189 258.873 43.2472C258.449 42.9721 257.96 42.8345 257.406 42.8345C256.853 42.8345 256.364 42.9721 255.94 43.2472C255.516 43.5189 255.182 43.9216 254.941 44.4553C254.702 44.9856 254.583 45.6368 254.583 46.4091C254.583 47.1813 254.702 47.8343 254.941 48.3679C255.182 48.8982 255.516 49.3009 255.94 49.576C256.364 49.8478 256.853 49.9837 257.406 49.9837C257.96 49.9837 258.449 49.8478 258.873 49.576C259.297 49.3009 259.629 48.8982 259.867 48.3679C260.109 47.8343 260.23 47.1813 260.23 46.4091ZM270.65 44.5696C270.567 44.3011 270.452 44.0608 270.306 43.8487C270.164 43.6333 269.992 43.4493 269.789 43.2969C269.591 43.1444 269.362 43.0301 269.103 42.9538C268.845 42.8743 268.563 42.8345 268.258 42.8345C267.711 42.8345 267.224 42.9721 266.797 43.2472C266.369 43.5223 266.033 43.9266 265.787 44.4602C265.545 44.9905 265.424 45.6368 265.424 46.3991C265.424 47.1681 265.545 47.8194 265.787 48.353C266.029 48.8866 266.366 49.2926 266.797 49.571C267.227 49.8461 267.728 49.9837 268.298 49.9837C268.815 49.9837 269.262 49.8842 269.64 49.6854C270.021 49.4865 270.315 49.2048 270.52 48.8402C270.726 48.4723 270.828 48.0414 270.828 47.5476L271.246 47.6122H268.482V46.1705H272.613V47.3935C272.613 48.2652 272.428 49.0192 272.056 49.6555C271.685 50.2919 271.175 50.7824 270.525 51.1271C269.876 51.4685 269.13 51.6392 268.288 51.6392C267.35 51.6392 266.526 51.4287 265.817 51.0078C265.111 50.5836 264.559 49.982 264.162 49.2031C263.767 48.4209 263.57 47.4929 263.57 46.419C263.57 45.5971 263.686 44.8629 263.918 44.2166C264.153 43.5703 264.481 43.0218 264.902 42.571C265.323 42.117 265.817 41.7723 266.384 41.5369C266.951 41.2983 267.567 41.179 268.233 41.179C268.797 41.179 269.322 41.2618 269.809 41.4276C270.297 41.59 270.729 41.822 271.107 42.1236C271.488 42.4252 271.801 42.7831 272.047 43.1974C272.292 43.6117 272.453 44.0691 272.529 44.5696H270.65ZM274.397 51.5V41.3182H276.241V49.9538H280.726V51.5H274.397ZM282.327 51.5V41.3182H288.949V42.8643H284.171V45.6286H288.606V47.1747H284.171V49.9538H288.988V51.5H282.327Z" fill="#1C2C40"/>
</g>
<g filter="url(#filter1_d_2010_26832)">
<rect x="20" y="90" width="335" height="56" rx="8" fill="white" shape-rendering="crispEdges"/>
<path fill-rule="evenodd" clip-rule="evenodd" d="M97.5113 109C97.6788 110.093 97.2157 111.164 96.6048 111.922C95.9512 112.735 94.8246 113.364 93.7331 113.331C93.5338 112.284 94.044 111.206 94.6648 110.481C95.3457 109.681 96.5128 109.067 97.5113 109ZM100.79 124.389C101.353 123.56 101.563 123.142 102 122.206C98.8229 121.045 98.3138 116.705 101.458 115.039C100.499 113.883 99.1513 113.213 97.8791 113.213C96.9625 113.213 96.3344 113.443 95.7635 113.652C95.2877 113.826 94.8515 113.986 94.321 113.986C93.7477 113.986 93.2401 113.811 92.7085 113.628C92.1244 113.427 91.5114 113.216 90.7508 113.216C89.3232 113.216 87.8036 114.054 86.8402 115.487C85.4859 117.505 85.7169 121.299 87.9131 124.532C88.6981 125.689 89.7469 126.988 91.1187 127C91.6879 127.005 92.0667 126.842 92.4766 126.665C92.9457 126.463 93.4556 126.243 94.3385 126.239C95.2266 126.234 95.7285 126.456 96.1914 126.661C96.5908 126.838 96.9612 127.003 97.5255 126.997C98.8984 126.986 100.005 125.546 100.79 124.389Z" fill="#0B0B0A"/>
<path d="M121.728 116.754H119.869C119.816 116.449 119.718 116.179 119.576 115.943C119.433 115.705 119.256 115.502 119.044 115.337C118.831 115.171 118.59 115.047 118.318 114.964C118.049 114.878 117.759 114.835 117.448 114.835C116.894 114.835 116.404 114.974 115.976 115.252C115.549 115.527 115.214 115.932 114.972 116.465C114.73 116.996 114.609 117.643 114.609 118.409C114.609 119.188 114.73 119.844 114.972 120.378C115.217 120.908 115.552 121.309 115.976 121.581C116.404 121.849 116.893 121.984 117.443 121.984C117.748 121.984 118.033 121.944 118.298 121.864C118.566 121.781 118.807 121.661 119.019 121.501C119.234 121.342 119.415 121.147 119.561 120.915C119.71 120.683 119.813 120.418 119.869 120.119L121.728 120.129C121.659 120.613 121.508 121.067 121.276 121.491C121.047 121.916 120.747 122.29 120.376 122.615C120.005 122.937 119.571 123.188 119.073 123.371C118.576 123.55 118.024 123.639 117.418 123.639C116.523 123.639 115.724 123.432 115.022 123.018C114.319 122.603 113.765 122.005 113.361 121.223C112.957 120.441 112.755 119.503 112.755 118.409C112.755 117.312 112.958 116.374 113.366 115.595C113.774 114.813 114.329 114.215 115.032 113.8C115.734 113.386 116.53 113.179 117.418 113.179C117.985 113.179 118.512 113.259 118.999 113.418C119.486 113.577 119.92 113.81 120.301 114.119C120.683 114.424 120.996 114.798 121.241 115.242C121.49 115.683 121.652 116.187 121.728 116.754ZM132.515 118.409C132.515 119.506 132.31 120.446 131.899 121.228C131.491 122.007 130.934 122.603 130.228 123.018C129.526 123.432 128.729 123.639 127.837 123.639C126.946 123.639 126.147 123.432 125.441 123.018C124.738 122.6 124.181 122.002 123.77 121.223C123.363 120.441 123.159 119.503 123.159 118.409C123.159 117.312 123.363 116.374 123.77 115.595C124.181 114.813 124.738 114.215 125.441 113.8C126.147 113.386 126.946 113.179 127.837 113.179C128.729 113.179 129.526 113.386 130.228 113.8C130.934 114.215 131.491 114.813 131.899 115.595C132.31 116.374 132.515 117.312 132.515 118.409ZM130.661 118.409C130.661 117.637 130.54 116.986 130.298 116.455C130.059 115.922 129.728 115.519 129.304 115.247C128.879 114.972 128.391 114.835 127.837 114.835C127.284 114.835 126.795 114.972 126.37 115.247C125.946 115.519 125.613 115.922 125.371 116.455C125.133 116.986 125.013 117.637 125.013 118.409C125.013 119.181 125.133 119.834 125.371 120.368C125.613 120.898 125.946 121.301 126.37 121.576C126.795 121.848 127.284 121.984 127.837 121.984C128.391 121.984 128.879 121.848 129.304 121.576C129.728 121.301 130.059 120.898 130.298 120.368C130.54 119.834 130.661 119.181 130.661 118.409ZM142.626 113.318V123.5H140.986L136.188 116.565H136.104V123.5H134.259V113.318H135.91L140.702 120.259H140.792V113.318H142.626ZM144.189 114.864V113.318H152.312V114.864H149.165V123.5H147.336V114.864H144.189ZM155.723 113.318V123.5H153.878V113.318H155.723ZM166.087 113.318V123.5H164.447L159.649 116.565H159.565V123.5H157.72V113.318H159.371L164.163 120.259H164.253V113.318H166.087ZM174.515 113.318H176.36V119.97C176.36 120.699 176.187 121.341 175.843 121.894C175.501 122.448 175.021 122.88 174.401 123.192C173.781 123.5 173.057 123.654 172.228 123.654C171.397 123.654 170.671 123.5 170.051 123.192C169.431 122.88 168.95 122.448 168.609 121.894C168.268 121.341 168.097 120.699 168.097 119.97V113.318H169.941V119.816C169.941 120.24 170.034 120.618 170.22 120.95C170.409 121.281 170.674 121.541 171.015 121.73C171.357 121.916 171.761 122.009 172.228 122.009C172.696 122.009 173.1 121.916 173.441 121.73C173.786 121.541 174.051 121.281 174.237 120.95C174.423 120.618 174.515 120.24 174.515 119.816V113.318ZM178.365 123.5V113.318H184.987V114.864H180.209V117.629H184.644V119.175H180.209V121.954H185.027V123.5H178.365ZM192.484 123.5L189.61 113.318H191.594L193.429 120.8H193.523L195.482 113.318H197.286L199.25 120.805H199.34L201.174 113.318H203.158L200.284 123.5H198.465L196.426 116.356H196.347L194.304 123.5H192.484ZM206.281 113.318V123.5H204.437V113.318H206.281ZM207.831 114.864V113.318H215.955V114.864H212.808V123.5H210.978V114.864H207.831ZM217.521 123.5V113.318H219.365V117.629H224.083V113.318H225.933V123.5H224.083V119.175H219.365V123.5H217.521ZM232.719 123.5H230.75L234.335 113.318H236.612L240.201 123.5H238.233L235.513 115.406H235.434L232.719 123.5ZM232.784 119.508H238.153V120.989H232.784V119.508ZM241.542 123.5V113.318H245.361C246.143 113.318 246.799 113.464 247.329 113.756C247.863 114.047 248.266 114.448 248.537 114.959C248.812 115.466 248.95 116.043 248.95 116.689C248.95 117.342 248.812 117.922 248.537 118.429C248.262 118.936 247.856 119.335 247.319 119.627C246.782 119.915 246.121 120.06 245.336 120.06H242.805V118.543H245.087C245.544 118.543 245.919 118.464 246.211 118.305C246.502 118.146 246.718 117.927 246.857 117.648C246.999 117.37 247.071 117.05 247.071 116.689C247.071 116.328 246.999 116.009 246.857 115.734C246.718 115.459 246.501 115.246 246.206 115.093C245.914 114.937 245.538 114.859 245.077 114.859H243.387V123.5H241.542ZM250.552 123.5V113.318H254.37C255.152 113.318 255.809 113.464 256.339 113.756C256.873 114.047 257.275 114.448 257.547 114.959C257.822 115.466 257.96 116.043 257.96 116.689C257.96 117.342 257.822 117.922 257.547 118.429C257.272 118.936 256.866 119.335 256.329 119.627C255.792 119.915 255.131 120.06 254.345 120.06H251.815V118.543H254.097C254.554 118.543 254.929 118.464 255.22 118.305C255.512 118.146 255.728 117.927 255.867 117.648C256.009 117.37 256.081 117.05 256.081 116.689C256.081 116.328 256.009 116.009 255.867 115.734C255.728 115.459 255.51 115.246 255.215 115.093C254.924 114.937 254.548 114.859 254.087 114.859H252.397V123.5H250.552ZM259.562 123.5V113.318H261.406V121.954H265.891V123.5H259.562ZM267.492 123.5V113.318H274.114V114.864H269.336V117.629H273.771V119.175H269.336V121.954H274.153V123.5H267.492Z" fill="#1C2C40"/>
</g>
<line x1="20" y1="177" x2="119" y2="177" stroke="#CECFDB"/>
<path d="M144.655 182.132C144.041 182.132 143.506 181.991 143.048 181.71C142.591 181.429 142.236 181.036 141.983 180.53C141.73 180.024 141.604 179.433 141.604 178.757C141.604 178.078 141.73 177.484 141.983 176.976C142.236 176.467 142.591 176.072 143.048 175.791C143.506 175.51 144.041 175.369 144.655 175.369C145.268 175.369 145.804 175.51 146.261 175.791C146.719 176.072 147.074 176.467 147.327 176.976C147.579 177.484 147.706 178.078 147.706 178.757C147.706 179.433 147.579 180.024 147.327 180.53C147.074 181.036 146.719 181.429 146.261 181.71C145.804 181.991 145.268 182.132 144.655 182.132ZM144.659 181.062C145.057 181.062 145.386 180.957 145.648 180.747C145.909 180.537 146.102 180.257 146.227 179.908C146.355 179.558 146.419 179.173 146.419 178.753C146.419 178.335 146.355 177.952 146.227 177.602C146.102 177.25 145.909 176.967 145.648 176.754C145.386 176.541 145.057 176.435 144.659 176.435C144.258 176.435 143.926 176.541 143.662 176.754C143.4 176.967 143.206 177.25 143.078 177.602C142.953 177.952 142.89 178.335 142.89 178.753C142.89 179.173 142.953 179.558 143.078 179.908C143.206 180.257 143.4 180.537 143.662 180.747C143.926 180.957 144.258 181.062 144.659 181.062ZM149.128 182V175.455H150.36V176.494H150.428C150.547 176.142 150.757 175.865 151.058 175.663C151.362 175.459 151.706 175.357 152.09 175.357C152.169 175.357 152.263 175.359 152.371 175.365C152.482 175.371 152.568 175.378 152.631 175.386V176.605C152.58 176.591 152.489 176.575 152.358 176.558C152.227 176.538 152.097 176.528 151.966 176.528C151.665 176.528 151.396 176.592 151.161 176.72C150.928 176.845 150.743 177.02 150.607 177.244C150.47 177.466 150.402 177.719 150.402 178.003V182H149.128ZM159.666 182.132C159.033 182.132 158.487 181.989 158.03 181.702C157.575 181.412 157.226 181.013 156.982 180.504C156.737 179.996 156.615 179.413 156.615 178.757C156.615 178.092 156.74 177.506 156.99 176.997C157.24 176.486 157.593 176.087 158.047 175.8C158.502 175.513 159.037 175.369 159.654 175.369C160.151 175.369 160.594 175.462 160.983 175.646C161.372 175.828 161.686 176.084 161.925 176.413C162.166 176.743 162.31 177.128 162.355 177.568H161.115C161.047 177.261 160.891 176.997 160.646 176.776C160.405 176.554 160.081 176.443 159.675 176.443C159.32 176.443 159.009 176.537 158.742 176.724C158.477 176.909 158.271 177.173 158.124 177.517C157.976 177.858 157.902 178.261 157.902 178.727C157.902 179.205 157.975 179.616 158.119 179.963C158.264 180.31 158.469 180.578 158.733 180.768C159 180.959 159.314 181.054 159.675 181.054C159.916 181.054 160.135 181.01 160.331 180.922C160.53 180.831 160.696 180.702 160.83 180.534C160.966 180.366 161.061 180.165 161.115 179.929H162.355C162.31 180.352 162.172 180.73 161.942 181.062C161.712 181.395 161.404 181.656 161.017 181.847C160.634 182.037 160.183 182.132 159.666 182.132ZM166.475 182.132C165.861 182.132 165.326 181.991 164.868 181.71C164.411 181.429 164.056 181.036 163.803 180.53C163.55 180.024 163.424 179.433 163.424 178.757C163.424 178.078 163.55 177.484 163.803 176.976C164.056 176.467 164.411 176.072 164.868 175.791C165.326 175.51 165.861 175.369 166.475 175.369C167.089 175.369 167.624 175.51 168.081 175.791C168.539 176.072 168.894 176.467 169.147 176.976C169.4 177.484 169.526 178.078 169.526 178.757C169.526 179.433 169.4 180.024 169.147 180.53C168.894 181.036 168.539 181.429 168.081 181.71C167.624 181.991 167.089 182.132 166.475 182.132ZM166.479 181.062C166.877 181.062 167.206 180.957 167.468 180.747C167.729 180.537 167.922 180.257 168.047 179.908C168.175 179.558 168.239 179.173 168.239 178.753C168.239 178.335 168.175 177.952 168.047 177.602C167.922 177.25 167.729 176.967 167.468 176.754C167.206 176.541 166.877 176.435 166.479 176.435C166.079 176.435 165.746 176.541 165.482 176.754C165.221 176.967 165.026 177.25 164.898 177.602C164.773 177.952 164.711 178.335 164.711 178.753C164.711 179.173 164.773 179.558 164.898 179.908C165.026 180.257 165.221 180.537 165.482 180.747C165.746 180.957 166.079 181.062 166.479 181.062ZM172.222 178.114V182H170.948V175.455H172.171V176.52H172.252C172.403 176.173 172.639 175.895 172.96 175.685C173.284 175.474 173.691 175.369 174.183 175.369C174.629 175.369 175.019 175.463 175.355 175.651C175.69 175.835 175.95 176.111 176.134 176.477C176.319 176.844 176.411 177.297 176.411 177.837V182H175.137V177.99C175.137 177.516 175.014 177.145 174.767 176.878C174.519 176.608 174.18 176.473 173.748 176.473C173.453 176.473 173.19 176.537 172.96 176.665C172.732 176.793 172.552 176.98 172.419 177.227C172.288 177.472 172.222 177.767 172.222 178.114ZM181.176 175.455V176.477H177.6V175.455H181.176ZM178.559 173.886H179.833V180.078C179.833 180.325 179.87 180.511 179.944 180.636C180.018 180.759 180.113 180.842 180.23 180.888C180.349 180.93 180.478 180.952 180.617 180.952C180.72 180.952 180.809 180.945 180.886 180.93C180.963 180.916 181.022 180.905 181.065 180.896L181.295 181.949C181.221 181.977 181.116 182.006 180.98 182.034C180.843 182.065 180.673 182.082 180.468 182.085C180.133 182.091 179.82 182.031 179.531 181.906C179.241 181.781 179.007 181.588 178.828 181.327C178.649 181.065 178.559 180.737 178.559 180.342V173.886ZM182.585 182V175.455H183.859V182H182.585ZM183.229 174.445C183.007 174.445 182.817 174.371 182.657 174.223C182.501 174.072 182.423 173.893 182.423 173.686C182.423 173.476 182.501 173.297 182.657 173.149C182.817 172.999 183.007 172.923 183.229 172.923C183.45 172.923 183.639 172.999 183.795 173.149C183.954 173.297 184.034 173.476 184.034 173.686C184.034 173.893 183.954 174.072 183.795 174.223C183.639 174.371 183.45 174.445 183.229 174.445ZM186.847 178.114V182H185.573V175.455H186.796V176.52H186.877C187.028 176.173 187.264 175.895 187.585 175.685C187.909 175.474 188.316 175.369 188.808 175.369C189.254 175.369 189.644 175.463 189.98 175.651C190.315 175.835 190.575 176.111 190.759 176.477C190.944 176.844 191.036 177.297 191.036 177.837V182H189.762V177.99C189.762 177.516 189.639 177.145 189.392 176.878C189.144 176.608 188.805 176.473 188.373 176.473C188.078 176.473 187.815 176.537 187.585 176.665C187.357 176.793 187.177 176.98 187.044 177.227C186.913 177.472 186.847 177.767 186.847 178.114ZM196.892 179.286V175.455H198.17V182H196.917V180.866H196.849C196.698 181.216 196.457 181.507 196.124 181.74C195.795 181.97 195.384 182.085 194.893 182.085C194.472 182.085 194.1 181.993 193.776 181.808C193.455 181.621 193.203 181.344 193.018 180.977C192.836 180.611 192.745 180.158 192.745 179.618V175.455H194.019V179.464C194.019 179.911 194.143 180.266 194.39 180.53C194.637 180.794 194.958 180.926 195.353 180.926C195.592 180.926 195.829 180.866 196.065 180.747C196.303 180.628 196.501 180.447 196.657 180.206C196.816 179.964 196.894 179.658 196.892 179.286ZM202.703 182.132C202.058 182.132 201.503 181.994 201.037 181.719C200.574 181.44 200.216 181.05 199.963 180.547C199.713 180.041 199.588 179.449 199.588 178.77C199.588 178.099 199.713 177.509 199.963 176.997C200.216 176.486 200.568 176.087 201.02 175.8C201.474 175.513 202.006 175.369 202.613 175.369C202.983 175.369 203.341 175.43 203.687 175.553C204.034 175.675 204.345 175.866 204.621 176.128C204.896 176.389 205.113 176.729 205.273 177.146C205.432 177.561 205.511 178.065 205.511 178.659V179.111H200.308V178.156H204.263C204.263 177.821 204.194 177.524 204.058 177.266C203.922 177.004 203.73 176.798 203.483 176.648C203.238 176.497 202.952 176.422 202.622 176.422C202.264 176.422 201.952 176.51 201.684 176.686C201.42 176.859 201.216 177.087 201.071 177.368C200.929 177.646 200.858 177.949 200.858 178.276V179.021C200.858 179.459 200.934 179.831 201.088 180.138C201.244 180.445 201.461 180.679 201.74 180.841C202.018 181 202.344 181.08 202.716 181.08C202.957 181.08 203.177 181.045 203.376 180.977C203.575 180.906 203.747 180.801 203.892 180.662C204.037 180.523 204.148 180.351 204.224 180.146L205.43 180.364C205.334 180.719 205.16 181.03 204.91 181.297C204.663 181.561 204.352 181.767 203.977 181.915C203.605 182.06 203.18 182.132 202.703 182.132ZM211.52 182L209.594 175.455H210.91L212.193 180.261H212.257L213.544 175.455H214.861L216.139 180.24H216.203L217.477 175.455H218.794L216.872 182H215.572L214.243 177.274H214.145L212.815 182H211.52ZM220.003 182V175.455H221.277V182H220.003ZM220.646 174.445C220.425 174.445 220.235 174.371 220.075 174.223C219.919 174.072 219.841 173.893 219.841 173.686C219.841 173.476 219.919 173.297 220.075 173.149C220.235 172.999 220.425 172.923 220.646 172.923C220.868 172.923 221.057 172.999 221.213 173.149C221.372 173.297 221.452 173.476 221.452 173.686C221.452 173.893 221.372 174.072 221.213 174.223C221.057 174.371 220.868 174.445 220.646 174.445ZM226.047 175.455V176.477H222.471V175.455H226.047ZM223.43 173.886H224.704V180.078C224.704 180.325 224.741 180.511 224.815 180.636C224.889 180.759 224.984 180.842 225.101 180.888C225.22 180.93 225.349 180.952 225.488 180.952C225.591 180.952 225.68 180.945 225.757 180.93C225.834 180.916 225.893 180.905 225.936 180.896L226.166 181.949C226.092 181.977 225.987 182.006 225.851 182.034C225.714 182.065 225.544 182.082 225.339 182.085C225.004 182.091 224.692 182.031 224.402 181.906C224.112 181.781 223.878 181.588 223.699 181.327C223.52 181.065 223.43 180.737 223.43 180.342V173.886ZM228.871 178.114V182H227.597V173.273H228.854V176.52H228.935C229.088 176.168 229.323 175.888 229.638 175.68C229.953 175.473 230.365 175.369 230.874 175.369C231.323 175.369 231.715 175.462 232.05 175.646C232.388 175.831 232.649 176.107 232.834 176.473C233.021 176.837 233.115 177.291 233.115 177.837V182H231.841V177.99C231.841 177.51 231.718 177.138 231.47 176.874C231.223 176.607 230.879 176.473 230.439 176.473C230.138 176.473 229.868 176.537 229.629 176.665C229.394 176.793 229.208 176.98 229.071 177.227C228.938 177.472 228.871 177.767 228.871 178.114Z" fill="white"/>
<line x1="256" y1="177" x2="355" y2="177" stroke="#CECFDB"/>
<g filter="url(#filter2_d_2010_26832)">
<rect x="20" y="209" width="335" height="56" rx="8" fill="white" shape-rendering="crispEdges"/>
<path d="M87.3332 230.333H100.667C101.583 230.333 102.333 231.083 102.333 232V242C102.333 242.916 101.583 243.666 100.667 243.666H87.3332C86.4165 243.666 85.6665 242.916 85.6665 242V232C85.6665 231.083 86.4165 230.333 87.3332 230.333Z" stroke="#1C2C40" stroke-width="2" stroke-linecap="round" stroke-linejoin="round"/>
<path d="M102.333 232L93.9998 237.833L85.6665 232" stroke="#1C2C40" stroke-width="2" stroke-linecap="round" stroke-linejoin="round"/>
<path d="M122.213 235.754H120.353C120.3 235.449 120.202 235.179 120.06 234.943C119.917 234.705 119.74 234.502 119.528 234.337C119.316 234.171 119.074 234.047 118.802 233.964C118.534 233.878 118.244 233.835 117.932 233.835C117.379 233.835 116.888 233.974 116.46 234.252C116.033 234.527 115.698 234.932 115.456 235.465C115.214 235.996 115.093 236.643 115.093 237.409C115.093 238.188 115.214 238.844 115.456 239.378C115.701 239.908 116.036 240.309 116.46 240.581C116.888 240.849 117.377 240.984 117.927 240.984C118.232 240.984 118.517 240.944 118.782 240.864C119.051 240.781 119.291 240.661 119.503 240.501C119.719 240.342 119.899 240.147 120.045 239.915C120.194 239.683 120.297 239.418 120.353 239.119L122.213 239.129C122.143 239.613 121.992 240.067 121.76 240.491C121.532 240.916 121.232 241.29 120.86 241.615C120.489 241.937 120.055 242.188 119.558 242.371C119.061 242.55 118.509 242.639 117.902 242.639C117.007 242.639 116.209 242.432 115.506 242.018C114.803 241.603 114.25 241.005 113.845 240.223C113.441 239.441 113.239 238.503 113.239 237.409C113.239 236.312 113.443 235.374 113.85 234.595C114.258 233.813 114.813 233.215 115.516 232.8C116.219 232.386 117.014 232.179 117.902 232.179C118.469 232.179 118.996 232.259 119.483 232.418C119.97 232.577 120.405 232.81 120.786 233.119C121.167 233.424 121.48 233.798 121.725 234.242C121.974 234.683 122.136 235.187 122.213 235.754ZM133 237.409C133 238.506 132.794 239.446 132.383 240.228C131.976 241.007 131.419 241.603 130.713 242.018C130.01 242.432 129.213 242.639 128.321 242.639C127.43 242.639 126.631 242.432 125.925 242.018C125.223 241.6 124.666 241.002 124.255 240.223C123.847 239.441 123.643 238.503 123.643 237.409C123.643 236.312 123.847 235.374 124.255 234.595C124.666 233.813 125.223 233.215 125.925 232.8C126.631 232.386 127.43 232.179 128.321 232.179C129.213 232.179 130.01 232.386 130.713 232.8C131.419 233.215 131.976 233.813 132.383 234.595C132.794 235.374 133 236.312 133 237.409ZM131.145 237.409C131.145 236.637 131.024 235.986 130.782 235.455C130.544 234.922 130.212 234.519 129.788 234.247C129.364 233.972 128.875 233.835 128.321 233.835C127.768 233.835 127.279 233.972 126.855 234.247C126.431 234.519 126.098 234.922 125.856 235.455C125.617 235.986 125.498 236.637 125.498 237.409C125.498 238.181 125.617 238.834 125.856 239.368C126.098 239.898 126.431 240.301 126.855 240.576C127.279 240.848 127.768 240.984 128.321 240.984C128.875 240.984 129.364 240.848 129.788 240.576C130.212 240.301 130.544 239.898 130.782 239.368C131.024 238.834 131.145 238.181 131.145 237.409ZM143.111 232.318V242.5H141.47L136.672 235.565H136.588V242.5H134.744V232.318H136.394L141.187 239.259H141.276V232.318H143.111ZM144.673 233.864V232.318H152.797V233.864H149.65V242.5H147.82V233.864H144.673ZM156.207 232.318V242.5H154.363V232.318H156.207ZM166.572 232.318V242.5H164.931L160.133 235.565H160.049V242.5H158.204V232.318H159.855L164.648 239.259H164.737V232.318H166.572ZM175 232.318H176.844V238.97C176.844 239.699 176.672 240.341 176.327 240.894C175.986 241.448 175.505 241.88 174.885 242.192C174.266 242.5 173.541 242.654 172.713 242.654C171.881 242.654 171.155 242.5 170.535 242.192C169.915 241.88 169.435 241.448 169.093 240.894C168.752 240.341 168.581 239.699 168.581 238.97V232.318H170.426V238.816C170.426 239.24 170.519 239.618 170.704 239.95C170.893 240.281 171.158 240.541 171.5 240.73C171.841 240.916 172.245 241.009 172.713 241.009C173.18 241.009 173.584 240.916 173.926 240.73C174.271 240.541 174.536 240.281 174.721 239.95C174.907 239.618 175 239.24 175 238.816V232.318ZM178.849 242.5V232.318H185.471V233.864H180.693V236.629H185.128V238.175H180.693V240.954H185.511V242.5H178.849ZM192.968 242.5L190.095 232.318H192.078L193.913 239.8H194.007L195.966 232.318H197.771L199.735 239.805H199.824L201.659 232.318H203.642L200.769 242.5H198.949L196.911 235.356H196.831L194.788 242.5H192.968ZM206.766 232.318V242.5H204.921V232.318H206.766ZM208.316 233.864V232.318H216.439V233.864H213.292V242.5H211.463V233.864H208.316ZM218.005 242.5V232.318H219.85V236.629H224.568V232.318H226.417V242.5H224.568V238.175H219.85V242.5H218.005ZM231.896 242.5V232.318H238.518V233.864H233.74V236.629H238.175V238.175H233.74V240.954H238.558V242.5H231.896ZM244.949 236.668V238.15H240.365V236.668H244.949ZM246.921 232.318H249.178L252.201 239.696H252.32L255.343 232.318H257.6V242.5H255.83V235.505H255.736L252.922 242.47H251.6L248.786 235.49H248.691V242.5H246.921V232.318ZM260.916 242.5H258.948L262.532 232.318H264.809L268.399 242.5H266.43L263.71 234.406H263.631L260.916 242.5ZM260.981 238.508H266.35V239.989H260.981V238.508ZM271.584 232.318V242.5H269.74V232.318H271.584ZM273.581 242.5V232.318H275.426V240.954H279.91V242.5H273.581Z" fill="#1C2C40"/>
</g>
<defs>
<filter id="filter0_d_2010_26832" x="0" y="0" width="375" height="96" filterUnits="userSpaceOnUse" color-interpolation-filters="sRGB">
<feFlood flood-opacity="0" result="BackgroundImageFix"/>
<feColorMatrix in="SourceAlpha" type="matrix" values="0 0 0 0 0 0 0 0 0 0 0 0 0 0 0 0 0 0 127 0" result="hardAlpha"/>
<feOffset dy="2"/>
<feGaussianBlur stdDeviation="10"/>
<feComposite in2="hardAlpha" operator="out"/>
<feColorMatrix type="matrix" values="0 0 0 0 0 0 0 0 0 0 0 0 0 0 0 0 0 0 0.08 0"/>
<feBlend mode="normal" in2="BackgroundImageFix" result="effect1_dropShadow_2010_26832"/>
<feBlend mode="normal" in="SourceGraphic" in2="effect1_dropShadow_2010_26832" result="shape"/>
</filter>
<filter id="filter1_d_2010_26832" x="0" y="72" width="375" height="96" filterUnits="userSpaceOnUse" color-interpolation-filters="sRGB">
<feFlood flood-opacity="0" result="BackgroundImageFix"/>
<feColorMatrix in="SourceAlpha" type="matrix" values="0 0 0 0 0 0 0 0 0 0 0 0 0 0 0 0 0 0 127 0" result="hardAlpha"/>
<feOffset dy="2"/>
<feGaussianBlur stdDeviation="10"/>
<feComposite in2="hardAlpha" operator="out"/>
<feColorMatrix type="matrix" values="0 0 0 0 0 0 0 0 0 0 0 0 0 0 0 0 0 0 0.08 0"/>
<feBlend mode="normal" in2="BackgroundImageFix" result="effect1_dropShadow_2010_26832"/>
<feBlend mode="normal" in="SourceGraphic" in2="effect1_dropShadow_2010_26832" result="shape"/>
</filter>
<filter id="filter2_d_2010_26832" x="0" y="191" width="375" height="96" filterUnits="userSpaceOnUse" color-interpolation-filters="sRGB">
<feFlood flood-opacity="0" result="BackgroundImageFix"/>
<feColorMatrix in="SourceAlpha" type="matrix" values="0 0 0 0 0 0 0 0 0 0 0 0 0 0 0 0 0 0 127 0" result="hardAlpha"/>
<feOffset dy="2"/>
<feGaussianBlur stdDeviation="10"/>
<feComposite in2="hardAlpha" operator="out"/>
<feColorMatrix type="matrix" values="0 0 0 0 0 0 0 0 0 0 0 0 0 0 0 0 0 0 0.08 0"/>
<feBlend mode="normal" in2="BackgroundImageFix" result="effect1_dropShadow_2010_26832"/>
<feBlend mode="normal" in="SourceGraphic" in2="effect1_dropShadow_2010_26832" result="shape"/>
</filter>
<clipPath id="clip0_2010_26832">
<rect width="20" height="20" fill="white" transform="translate(84 36)"/>
</clipPath>
</defs>
</svg>
