<svg width="20" height="20" viewBox="0 0 20 20" fill="none" xmlns="http://www.w3.org/2000/svg">
<path fill-rule="evenodd" clip-rule="evenodd" d="M13.5113 1C13.6788 2.09331 13.2157 3.16439 12.6048 3.92219C11.9512 4.73502 10.8246 5.3637 9.73308 5.33089C9.53382 4.28415 10.044 3.20566 10.6648 2.48067C11.3457 1.68054 12.5128 1.06668 13.5113 1ZM16.7902 16.3888C17.353 15.5601 17.5632 15.1421 18 14.2064C14.8229 13.0454 14.3138 8.70499 17.4581 7.0391C16.499 5.88335 15.1513 5.21339 13.8791 5.21339C12.9625 5.21339 12.3344 5.44326 11.7635 5.65223C11.2877 5.82638 10.8515 5.98601 10.321 5.98601C9.74773 5.98601 9.24008 5.8111 8.70852 5.62795C8.12441 5.4267 7.51144 5.21551 6.75082 5.21551C5.32319 5.21551 3.80359 6.05375 2.84016 7.48679C1.48588 9.50512 1.71689 13.2994 3.91308 16.5317C4.69805 17.6885 5.74688 18.9882 7.11868 18.9999C7.68789 19.0053 8.06666 18.842 8.47655 18.6654C8.94571 18.4632 9.45563 18.2434 10.3385 18.2389C11.2266 18.2338 11.7285 18.4562 12.1914 18.6614C12.5908 18.8384 12.9612 19.0026 13.5255 18.9967C14.8984 18.9861 16.0053 17.5456 16.7902 16.3888Z" fill="#0B0B0A"/>
</svg>
