<svg width="335" height="146" viewBox="0 0 335 146" fill="none" xmlns="http://www.w3.org/2000/svg">
<rect width="335" height="146" rx="8" fill="#18191F" fill-opacity="0.6"/>
<path fill-rule="evenodd" clip-rule="evenodd" d="M156.318 72.1669C155.523 72.1669 154.879 72.8114 154.879 73.6063V83.682C154.879 84.4769 155.523 85.1214 156.318 85.1214H176.47C177.265 85.1214 177.909 84.4769 177.909 83.682V73.6063C177.909 72.8114 177.265 72.1669 176.47 72.1669H156.318ZM156.318 69.2881H176.47C178.855 69.2881 180.788 71.2213 180.788 73.6063V83.682C180.788 86.067 178.855 88.0002 176.47 88.0002H156.318C153.933 88.0002 152 86.067 152 83.682V73.6063C152 71.2213 153.933 69.2881 156.318 69.2881Z" fill="white"/>
<path fill-rule="evenodd" clip-rule="evenodd" d="M160.636 79.3641C159.841 79.3641 159.197 78.7196 159.197 77.9247C159.197 77.1299 159.841 76.4854 160.636 76.4854C161.431 76.4854 162.076 77.1299 162.076 77.9247C162.076 78.7196 161.431 79.3641 160.636 79.3641Z" fill="white"/>
<path fill-rule="evenodd" clip-rule="evenodd" d="M166.393 79.3641C165.599 79.3641 164.954 78.7196 164.954 77.9247C164.954 77.1299 165.599 76.4854 166.393 76.4854C167.188 76.4854 167.833 77.1299 167.833 77.9247C167.833 78.7196 167.188 79.3641 166.393 79.3641Z" fill="white"/>
<path fill-rule="evenodd" clip-rule="evenodd" d="M172.152 79.3641C171.357 79.3641 170.712 78.7196 170.712 77.9247C170.712 77.1299 171.357 76.4854 172.152 76.4854C172.947 76.4854 173.591 77.1299 173.591 77.9247C173.591 78.7196 172.947 79.3641 172.152 79.3641Z" fill="white"/>
<path fill-rule="evenodd" clip-rule="evenodd" d="M160.636 70.7279C160.636 71.5228 159.992 72.1673 159.197 72.1673C158.402 72.1673 157.757 71.5228 157.757 70.7279V64.9703C157.757 60.2008 161.624 56.334 166.394 56.334C171.163 56.334 175.03 60.2008 175.03 64.9703V70.7279C175.03 71.5228 174.386 72.1673 173.591 72.1673C172.796 72.1673 172.151 71.5228 172.151 70.7279V64.9703C172.151 61.7905 169.574 59.2128 166.394 59.2128C163.214 59.2128 160.636 61.7905 160.636 64.9703V70.7279Z" fill="white"/>
</svg>
