<svg width="213" height="56" viewBox="0 0 213 56" fill="none" xmlns="http://www.w3.org/2000/svg">
<path d="M0.100098 55.0771V0.959789H37.1264V10.1147H11.0054V22.9242H33.5527V32.0791H11.0054V55.0771H0.100098Z" fill="white"/>
<path d="M45.8211 55.0771V0.959789H56.7264V55.0771H45.8211Z" fill="white"/>
<path d="M79.3106 55.0771V10.1147H63.2843V0.959789H106.205V10.1147H90.2159V55.0771H79.3106Z" fill="white"/>
<path d="M111.437 28.7198C111.437 19.7372 113.844 12.7111 118.658 7.6414C123.472 2.54713 129.686 0 137.3 0C142.286 0 146.781 1.19359 150.784 3.58075C154.788 5.96792 157.833 9.30257 159.921 13.5847C162.033 17.8422 163.09 22.6781 163.09 28.0923C163.09 33.5803 161.984 38.49 159.774 42.8214C157.563 47.1527 154.432 50.4382 150.379 52.6777C146.326 54.8926 141.954 56 137.263 56C132.179 56 127.635 54.7695 123.632 52.3085C119.628 49.8475 116.595 46.4882 114.532 42.2307C112.469 37.9732 111.437 33.4696 111.437 28.7198ZM118.805 28.8306C118.805 35.3522 120.549 40.4957 124.037 44.261C127.549 48.0018 131.946 49.8721 137.226 49.8721C142.605 49.8721 147.026 47.9772 150.49 44.1872C153.977 40.3973 155.721 35.02 155.721 28.0554C155.721 23.6502 154.972 19.811 153.474 16.5379C152 13.2402 149.826 10.693 146.953 8.89651C144.104 7.07537 140.898 6.1648 137.337 6.1648C132.277 6.1648 127.918 7.91211 124.258 11.4067C120.623 14.8767 118.805 20.6847 118.805 28.8306Z" fill="white"/>
<path d="M169.905 37.6902L176.647 37.0995C176.967 39.8066 177.704 42.0338 178.858 43.7812C180.037 45.5039 181.854 46.9066 184.311 47.9895C186.767 49.0477 189.53 49.5768 192.6 49.5768C195.326 49.5768 197.733 49.1707 199.821 48.3586C201.909 47.5465 203.456 46.439 204.463 45.0363C205.495 43.6089 206.011 42.0585 206.011 40.385C206.011 38.6869 205.519 37.2103 204.537 35.9552C203.554 34.6755 201.933 33.6049 199.674 32.7436C198.225 32.1775 195.019 31.3039 190.058 30.1226C185.097 28.9167 181.621 27.7847 179.632 26.7264C177.053 25.3729 175.125 23.6994 173.847 21.706C172.595 19.688 171.969 17.4362 171.969 14.9506C171.969 12.2189 172.742 9.67172 174.29 7.30916C175.837 4.922 178.097 3.11316 181.069 1.88266C184.04 0.652165 187.344 0.0369159 190.979 0.0369159C194.983 0.0369159 198.507 0.68908 201.553 1.99341C204.623 3.27313 206.981 5.1681 208.626 7.67831C210.272 10.1885 211.156 13.031 211.279 16.2057L204.426 16.7225C204.058 13.3017 202.805 10.7176 200.669 8.97034C198.556 7.22303 195.425 6.34937 191.274 6.34937C186.951 6.34937 183.795 7.1492 181.805 8.74885C179.84 10.3239 178.858 12.2312 178.858 14.4707C178.858 16.4149 179.558 18.0145 180.958 19.2696C182.333 20.5247 185.919 21.8167 191.716 23.1457C197.537 24.45 201.528 25.5944 203.69 26.5788C206.833 28.0308 209.154 29.8765 210.653 32.116C212.151 34.3309 212.9 36.8904 212.9 39.7943C212.9 42.6737 212.077 45.3931 210.432 47.9525C208.786 50.4874 206.416 52.4685 203.321 53.8959C200.251 55.2986 196.788 56 192.932 56C188.044 56 183.942 55.2863 180.626 53.8589C177.335 52.4316 174.744 50.2905 172.853 47.4357C170.986 44.5564 170.004 41.3078 169.905 37.6902Z" fill="white"/>
</svg>
